<svg xmlns="http://www.w3.org/2000/svg" width="65" height="51.999" viewBox="0 0 65 51.999">
  <path id="Shape_2" d="M1565.5,1253.27a1.75,1.75,0,1,1,1.75,1.73A1.741,1.741,0,0,1,1565.5,1253.27Zm-12.319,0a1.77,1.77,0,1,1,1.769,1.73A1.75,1.75,0,0,1,1553.18,1253.27Zm-12.271,0a1.75,1.75,0,1,1,1.75,1.73A1.741,1.741,0,0,1,1540.91,1253.27Zm-12.32,0a1.75,1.75,0,1,1,1.75,1.73A1.741,1.741,0,0,1,1528.59,1253.27Zm-12.309,0a1.77,1.77,0,1,1,1.769,1.73A1.75,1.75,0,0,1,1516.28,1253.27Zm-12.281,0a1.75,1.75,0,1,1,1.751,1.73A1.741,1.741,0,0,1,1504,1253.27Zm61.5-12.13a1.75,1.75,0,1,1,1.75,1.731A1.741,1.741,0,0,1,1565.5,1241.14Zm-12.319,0a1.77,1.77,0,1,1,1.769,1.731A1.75,1.75,0,0,1,1553.18,1241.14Zm-12.271,0a1.75,1.75,0,1,1,1.75,1.731A1.741,1.741,0,0,1,1540.91,1241.14Zm-12.32,0a1.75,1.75,0,1,1,1.75,1.731A1.741,1.741,0,0,1,1528.59,1241.14Zm-12.309,0a1.77,1.77,0,1,1,1.769,1.731A1.75,1.75,0,0,1,1516.28,1241.14Zm-12.281,0a1.75,1.75,0,1,1,1.751,1.731A1.741,1.741,0,0,1,1504,1241.14ZM1565.5,1229a1.75,1.75,0,1,1,1.75,1.72A1.736,1.736,0,0,1,1565.5,1229Zm-12.319,0a1.771,1.771,0,1,1,1.769,1.72A1.745,1.745,0,0,1,1553.18,1229Zm-12.271,0a1.75,1.75,0,1,1,1.75,1.72A1.736,1.736,0,0,1,1540.91,1229Zm-12.32,0a1.75,1.75,0,1,1,1.75,1.72A1.736,1.736,0,0,1,1528.59,1229Zm-12.309,0a1.771,1.771,0,1,1,1.769,1.72A1.745,1.745,0,0,1,1516.28,1229ZM1504,1229a1.75,1.75,0,1,1,1.751,1.72A1.736,1.736,0,0,1,1504,1229Zm61.5-12.14a1.75,1.75,0,1,1,1.75,1.73A1.741,1.741,0,0,1,1565.5,1216.86Zm-12.319,0a1.77,1.77,0,1,1,1.769,1.73A1.75,1.75,0,0,1,1553.18,1216.86Zm-12.271,0a1.75,1.75,0,1,1,1.75,1.73A1.741,1.741,0,0,1,1540.91,1216.86Zm-12.32,0a1.75,1.75,0,1,1,1.75,1.73A1.741,1.741,0,0,1,1528.59,1216.86Zm-12.309,0a1.77,1.77,0,1,1,1.769,1.73A1.75,1.75,0,0,1,1516.28,1216.86Zm-12.281,0a1.75,1.75,0,1,1,1.751,1.73A1.741,1.741,0,0,1,1504,1216.86Zm61.5-12.13a1.75,1.75,0,1,1,1.75,1.73A1.74,1.74,0,0,1,1565.5,1204.73Zm-12.319,0a1.77,1.77,0,1,1,1.769,1.73A1.749,1.749,0,0,1,1553.18,1204.73Zm-12.271,0a1.75,1.75,0,1,1,1.75,1.73A1.74,1.74,0,0,1,1540.91,1204.73Zm-12.32,0a1.75,1.75,0,1,1,1.75,1.73A1.74,1.74,0,0,1,1528.59,1204.73Zm-12.309,0a1.77,1.77,0,1,1,1.769,1.73A1.749,1.749,0,0,1,1516.28,1204.73Zm-12.281,0a1.75,1.75,0,1,1,1.751,1.73A1.74,1.74,0,0,1,1504,1204.73Z" transform="translate(-1504 -1203)" fill="#fe3e57"/>
</svg>
