<svg xmlns="http://www.w3.org/2000/svg" width="119.994" height="121.003" viewBox="0 0 119.994 121.003">
  <path id="Shape_1" d="M390.868,1011.984a.592.592,0,0,1,.022-1.184c1.348.025,2.719,0,4.067-.063a.584.584,0,0,1,.616.562.591.591,0,0,1-.557.62c-1,.049-2.021.076-3.027.076Q391.427,1011.994,390.868,1011.984Zm-4.141-.22c-1.371-.12-2.756-.29-4.116-.5a.592.592,0,0,1,.182-1.169c1.334.211,2.691.377,4.036.5a.592.592,0,0,1-.05,1.181A.5.5,0,0,1,386.727,1011.765Zm11.767-.714a.592.592,0,0,1,.514-.658c1.343-.161,2.695-.371,4.018-.625a.592.592,0,0,1,.22,1.163c-1.35.258-2.73.472-4.1.637a.616.616,0,0,1-.07,0A.589.589,0,0,1,398.494,1011.051Zm-19.954-.582c-1.344-.311-2.692-.671-4.008-1.075a.592.592,0,0,1-.392-.738.585.585,0,0,1,.732-.394c1.291.394,2.613.749,3.929,1.053a.592.592,0,0,1-.13,1.168A.6.6,0,0,1,378.54,1010.469Zm28.032-.881a.591.591,0,0,1,.419-.722c1.3-.346,2.614-.743,3.893-1.181a.586.586,0,0,1,.744.371.594.594,0,0,1-.367.751c-1.305.446-2.642.851-3.973,1.2a.561.561,0,0,1-.149.02A.587.587,0,0,1,406.572,1009.588Zm-35.97-1.549c-1.288-.495-2.575-1.042-3.826-1.627a.593.593,0,0,1-.285-.786.584.584,0,0,1,.779-.288c1.227.573,2.488,1.11,3.75,1.6a.591.591,0,1,1-.418,1.105Zm43.764-1.027a.593.593,0,0,1,.315-.774c1.243-.524,2.484-1.1,3.69-1.71a.585.585,0,0,1,.788.263.6.6,0,0,1-.261.794c-1.23.624-2.5,1.211-3.765,1.745a.575.575,0,0,1-.227.047A.587.587,0,0,1,414.366,1007.012Zm-51.293-2.491c-1.206-.671-2.4-1.391-3.563-2.145a.6.6,0,0,1-.176-.818.585.585,0,0,1,.812-.176c1.136.738,2.311,1.446,3.493,2.1a.594.594,0,0,1,.231.8.584.584,0,0,1-.8.232Zm58.658-1.148a.6.6,0,0,1,.205-.811c1.16-.692,2.311-1.435,3.423-2.209a.582.582,0,0,1,.816.151.594.594,0,0,1-.149.823c-1.134.789-2.309,1.547-3.491,2.254a.585.585,0,0,1-.8-.208ZM356.1,999.989c-1.105-.833-2.194-1.713-3.236-2.618a.6.6,0,0,1-.062-.834.584.584,0,0,1,.828-.062c1.022.887,2.089,1.75,3.173,2.566a.6.6,0,0,1,.118.828.584.584,0,0,1-.821.121Zm32.116-.364a.59.59,0,0,1-.54-.635.581.581,0,0,1,.632-.544c1.215.1,2.453.144,3.678.144l.374,0h0a.592.592,0,0,1,0,1.183l-.382,0C390.733,999.773,389.464,999.723,388.219,999.626Zm7.664-.6a.591.591,0,0,1,.529-.644c1.345-.128,2.7-.316,4.017-.559a.592.592,0,0,1,.211,1.165c-1.355.248-2.741.441-4.118.571l-.055,0A.589.589,0,0,1,395.883,999.026Zm-11.79.093c-1.365-.228-2.733-.518-4.067-.865a.591.591,0,0,1,.293-1.146c1.3.337,2.635.621,3.967.844a.592.592,0,0,1-.1,1.175A.506.506,0,0,1,384.093,999.119Zm44.437-.375a.6.6,0,0,1,.094-.832c1.052-.844,2.092-1.741,3.091-2.662a.584.584,0,0,1,.83.036.6.6,0,0,1-.036.836c-1.019.941-2.08,1.854-3.154,2.716a.583.583,0,0,1-.824-.094Zm-24.557-1.1a.592.592,0,0,1,.41-.727c1.3-.36,2.6-.781,3.859-1.254a.591.591,0,0,1,.409,1.109c-1.293.484-2.624.917-3.956,1.286a.587.587,0,0,1-.722-.414Zm-27.924-.608c-1.3-.464-2.6-.991-3.858-1.568a.593.593,0,0,1-.291-.783.584.584,0,0,1,.778-.293c1.227.562,2.492,1.076,3.763,1.528a.593.593,0,0,1-.2,1.15A.572.572,0,0,1,376.048,997.034Zm35.649-2.173a.593.593,0,0,1,.279-.787c1.214-.581,2.42-1.223,3.585-1.91a.584.584,0,0,1,.8.211.594.594,0,0,1-.211.809c-1.193.7-2.429,1.364-3.674,1.958a.583.583,0,0,1-.782-.282Zm-61.88-.324c-.98-.977-1.939-2-2.848-3.038a.6.6,0,0,1,.052-.835.584.584,0,0,1,.828.052c.893,1.02,1.832,2.022,2.794,2.98a.594.594,0,0,1,0,.836.582.582,0,0,1-.83.005Zm18.667-.97c-1.2-.685-2.389-1.43-3.53-2.218a.6.6,0,0,1-.152-.823.585.585,0,0,1,.816-.154c1.112.769,2.27,1.5,3.443,2.164a.593.593,0,0,1,.222.806.583.583,0,0,1-.8.225Zm66.155-.351a.6.6,0,0,1-.021-.838c.931-.985,1.84-2.016,2.7-3.065a.583.583,0,0,1,.825-.078.6.6,0,0,1,.077.833c-.878,1.069-1.805,2.121-2.754,3.127a.585.585,0,0,1-.83.022Zm-15.81-2.444a.6.6,0,0,1,.139-.825c1.1-.785,2.177-1.629,3.2-2.506a.583.583,0,0,1,.827.069.6.6,0,0,1-.068.833c-1.052.9-2.157,1.763-3.284,2.569a.584.584,0,0,1-.818-.14Zm-57.2-1.939c-1.069-.885-2.111-1.825-3.1-2.8a.594.594,0,0,1-.009-.837.583.583,0,0,1,.83-.01c.961.948,1.978,1.866,3.021,2.728a.6.6,0,0,1,.081.833.584.584,0,0,1-.826.083Zm-17.294-.562c-.834-1.1-1.644-2.243-2.408-3.4a.6.6,0,0,1,.165-.82.582.582,0,0,1,.813.167c.749,1.138,1.543,2.26,2.362,3.336a.6.6,0,0,1-.109.83.585.585,0,0,1-.823-.11Zm45.859-.462a36.051,36.051,0,0,1-4.148-.448.59.59,0,0,1-.483-.68.584.584,0,0,1,.676-.487,34.531,34.531,0,0,0,4.013.433.592.592,0,0,1-.028,1.183Zm3.548-.585a.59.59,0,0,1,.548-.629,35.057,35.057,0,0,0,4.006-.5.591.591,0,0,1,.211,1.164,35.81,35.81,0,0,1-4.141.515l-.039,0A.591.591,0,0,1,393.741,987.224Zm46.2-.332a.594.594,0,0,1-.135-.825c.791-1.112,1.551-2.259,2.258-3.412a.585.585,0,0,1,.808-.193.6.6,0,0,1,.191.815c-.722,1.175-1.5,2.346-2.3,3.478a.582.582,0,0,1-.819.136Zm-57.965-.459a35.733,35.733,0,0,1-3.937-1.4.593.593,0,0,1-.313-.775.585.585,0,0,1,.769-.317A34.417,34.417,0,0,0,382.3,985.3a.594.594,0,0,1,.4.734.587.587,0,0,1-.563.427A.567.567,0,0,1,381.974,986.433Zm19.854-.56a.592.592,0,0,1,.389-.739A34.712,34.712,0,0,0,406,983.719a.584.584,0,0,1,.774.3.593.593,0,0,1-.3.779,35.956,35.956,0,0,1-3.913,1.465.594.594,0,0,1-.172.025A.586.586,0,0,1,401.828,985.874Zm23.324-.373a.6.6,0,0,1,0-.837c.948-.962,1.867-1.98,2.731-3.023a.582.582,0,0,1,.826-.076.593.593,0,0,1,.075.832c-.885,1.07-1.827,2.113-2.8,3.1a.583.583,0,0,1-.83,0Zm-50.865-2.321a36.2,36.2,0,0,1-3.511-2.276.6.6,0,0,1-.129-.827.584.584,0,0,1,.82-.13,35.135,35.135,0,0,0,3.4,2.2.6.6,0,0,1,.223.807.585.585,0,0,1-.511.3A.577.577,0,0,1,374.288,983.18Zm-18.6-.2c-.9-1.053-1.765-2.16-2.574-3.29a.6.6,0,0,1,.133-.826.585.585,0,0,1,.82.134c.788,1.1,1.633,2.182,2.511,3.211a.594.594,0,0,1-.062.833.583.583,0,0,1-.828-.062Zm53.7-.3a.6.6,0,0,1,.21-.81,34.959,34.959,0,0,0,3.359-2.255.584.584,0,0,1,.823.117.6.6,0,0,1-.116.828,36.084,36.084,0,0,1-3.472,2.331.573.573,0,0,1-.3.082A.584.584,0,0,1,409.387,982.679Zm-69.628-1.372c-.679-1.205-1.324-2.451-1.919-3.7a.6.6,0,0,1,.275-.79.584.584,0,0,1,.783.278c.583,1.227,1.216,2.448,1.882,3.631a.6.6,0,0,1-.221.806.583.583,0,0,1-.8-.223Zm104.57-1.415a.594.594,0,0,1-.247-.8c.632-1.209,1.227-2.452,1.77-3.694a.587.587,0,0,1,.774-.3.594.594,0,0,1,.3.781c-.553,1.267-1.162,2.535-1.805,3.768a.587.587,0,0,1-.519.317A.572.572,0,0,1,444.329,979.892Zm-13.843-.679a.6.6,0,0,1-.146-.823c.77-1.114,1.5-2.275,2.173-3.453a.585.585,0,0,1,.8-.219.6.6,0,0,1,.216.808c-.689,1.208-1.438,2.4-2.228,3.541a.582.582,0,0,1-.817.147Zm-62.935-.979a36.655,36.655,0,0,1-2.9-3.025.594.594,0,0,1,.062-.833.583.583,0,0,1,.828.062,35.434,35.434,0,0,0,2.806,2.927.594.594,0,0,1,.033.835.581.581,0,0,1-.829.034Zm48.464-.416a.6.6,0,0,1,.021-.837,35.322,35.322,0,0,0,2.761-2.97.582.582,0,0,1,.826-.076.6.6,0,0,1,.075.833,36.692,36.692,0,0,1-2.853,3.071.585.585,0,0,1-.83-.022Zm-65.185-1.631c-.706-1.194-1.37-2.435-1.971-3.688a.593.593,0,0,1,.273-.79.585.585,0,0,1,.784.274c.587,1.221,1.234,2.433,1.923,3.6a.594.594,0,0,1-.2.811.577.577,0,0,1-.3.084A.588.588,0,0,1,350.83,976.188Zm-14.649-2.409c-.507-1.288-.975-2.613-1.393-3.937a.587.587,0,1,1,1.119-.359c.41,1.3.869,2.6,1.365,3.86a.593.593,0,0,1-.329.769.573.573,0,0,1-.216.042A.586.586,0,0,1,336.181,973.778Zm111.536-1.433a.592.592,0,0,1-.353-.757c.456-1.278.875-2.591,1.243-3.9a.587.587,0,1,1,1.129.322c-.376,1.339-.8,2.678-1.269,3.982a.586.586,0,0,1-.552.392A.6.6,0,0,1,447.717,972.346Zm-13.051-.254a.593.593,0,0,1-.285-.786c.566-1.231,1.087-2.5,1.546-3.781a.586.586,0,0,1,.752-.355.593.593,0,0,1,.352.758c-.471,1.311-1,2.615-1.585,3.877a.588.588,0,0,1-.533.342A.571.571,0,0,1,434.666,972.092Zm-72.552-.221a36.552,36.552,0,0,1-2.137-3.612.6.6,0,0,1,.249-.8.584.584,0,0,1,.791.252,35.776,35.776,0,0,0,2.068,3.495.594.594,0,0,1-.157.822.584.584,0,0,1-.815-.158Zm59.255-.311a.6.6,0,0,1-.169-.819,35.406,35.406,0,0,0,2.013-3.53.584.584,0,0,1,.788-.265.6.6,0,0,1,.262.795,36.738,36.738,0,0,1-2.08,3.648.584.584,0,0,1-.814.171Zm-74.156-2.907c-.49-1.3-.93-2.641-1.306-3.979a.587.587,0,1,1,1.129-.322c.367,1.306.8,2.612,1.274,3.881a.593.593,0,0,1-.34.763.565.565,0,0,1-.209.039A.588.588,0,0,1,347.213,968.652Zm-13.544-2.838c-.324-1.346-.606-2.723-.837-4.094a.587.587,0,1,1,1.157-.2c.228,1.345.5,2.7.821,4.015a.592.592,0,0,1-.431.715.575.575,0,0,1-.139.016A.588.588,0,0,1,333.669,965.814Zm24.6-1.4a36.559,36.559,0,0,1-1.255-4.012.587.587,0,1,1,1.139-.29A35.262,35.262,0,0,0,359.366,964a.593.593,0,0,1-.34.763.584.584,0,0,1-.757-.343Zm91.763-.013a.592.592,0,0,1-.454-.7c.276-1.333.509-2.691.694-4.038a.582.582,0,0,1,.661-.5.591.591,0,0,1,.5.667c-.188,1.373-.426,2.759-.708,4.118a.587.587,0,0,1-.573.471A.623.623,0,0,1,450.032,964.406Zm-12.477-.058a.592.592,0,0,1-.417-.724c.346-1.308.637-2.651.869-3.992a.587.587,0,1,1,1.156.2c-.238,1.374-.537,2.752-.891,4.093a.588.588,0,0,1-.567.44A.554.554,0,0,1,437.555,964.347Zm-12.4-.121a.594.594,0,0,1-.352-.758,35.064,35.064,0,0,0,1.152-3.9.587.587,0,1,1,1.143.27,36.385,36.385,0,0,1-1.191,4.036.584.584,0,0,1-.752.355Zm-80.207-3.632c-.257-1.363-.46-2.757-.6-4.145a.587.587,0,1,1,1.168-.121c.138,1.355.335,2.716.586,4.045a.591.591,0,0,1-.466.692.669.669,0,0,1-.111.01A.588.588,0,0,1,344.95,960.594Zm-12.673-3.018c-.137-1.382-.229-2.785-.271-4.171a.587.587,0,1,1,1.174-.036c.041,1.359.13,2.735.265,4.09a.591.591,0,0,1-.526.648l-.059,0A.589.589,0,0,1,332.277,957.577Zm23.953-1.3a37.1,37.1,0,0,1-.3-4.194.59.59,0,0,1,.578-.6h.009a.588.588,0,0,1,.587.582,35.911,35.911,0,0,0,.294,4.058.591.591,0,0,1-.5.664.567.567,0,0,1-.077,0A.589.589,0,0,1,356.231,956.274Zm95-.055a.59.59,0,0,1-.545-.63c.092-1.355.138-2.734.138-4.1,0-1.246-.039-2.507-.115-3.751a.589.589,0,0,1,.549-.627.581.581,0,0,1,.622.553c.079,1.268.119,2.555.119,3.825,0,1.389-.048,2.794-.14,4.177a.59.59,0,0,1-.586.551Zm-12.169,0a.591.591,0,0,1-.535-.64c.115-1.347.174-2.721.174-4.084,0-.5-.008-1.006-.023-1.508a.588.588,0,0,1,.567-.61.578.578,0,0,1,.606.573q.024.768.024,1.544c0,1.4-.059,2.805-.177,4.185a.589.589,0,0,1-.584.541A.5.5,0,0,1,439.064,956.218Zm-11.9-.005a.59.59,0,0,1-.517-.654,36.039,36.039,0,0,0,.23-4.064q0-.572-.017-1.138a.587.587,0,1,1,1.173-.038q.019.586.018,1.175a37.358,37.358,0,0,1-.238,4.2.588.588,0,0,1-.582.524A.568.568,0,0,1,427.167,956.212Zm-82.474-3.364a.59.59,0,0,1-.587-.582q-.005-.385-.006-.771c0-1.136.04-2.286.119-3.416a.587.587,0,1,1,1.171.082c-.077,1.1-.115,2.226-.115,3.334,0,.25,0,.5.006.753a.591.591,0,0,1-.578.6Zm-12.109-3.01a.589.589,0,0,1-.564-.613c.05-1.391.149-2.794.294-4.17a.587.587,0,1,1,1.166.124c-.141,1.349-.238,2.725-.288,4.09a.588.588,0,0,1-.586.569Zm24.04-1.313a.591.591,0,0,1-.526-.648,36.735,36.735,0,0,1,.649-4.155.587.587,0,1,1,1.147.252,35.392,35.392,0,0,0-.628,4.019.59.59,0,0,1-.584.535ZM426.5,946.3a35.556,35.556,0,0,0-.823-3.984.593.593,0,0,1,.415-.725.586.586,0,0,1,.719.417,36.513,36.513,0,0,1,.85,4.12.591.591,0,0,1-.494.671.587.587,0,0,1-.667-.5Zm11.875-.392c-.158-1.353-.378-2.71-.651-4.035a.588.588,0,1,1,1.15-.241c.279,1.358.5,2.75.666,4.136a.59.59,0,0,1-.514.657.614.614,0,0,1-.069,0A.589.589,0,0,1,438.379,945.91Zm-93.2-1.319a.591.591,0,0,1-.488-.677c.215-1.375.493-2.757.825-4.108a.587.587,0,0,1,.712-.432.594.594,0,0,1,.428.717c-.325,1.318-.6,2.666-.806,4.007a.588.588,0,0,1-.579.5A.651.651,0,0,1,345.174,944.591Zm105.143-.928c-.176-1.349-.4-2.709-.671-4.043a.591.591,0,0,1,.458-.7.585.585,0,0,1,.691.463c.275,1.359.5,2.746.685,4.123a.59.59,0,0,1-.5.663.569.569,0,0,1-.077.005A.588.588,0,0,1,450.318,943.663ZM333.368,941.6a.591.591,0,0,1-.476-.686c.239-1.368.529-2.743.861-4.09a.583.583,0,0,1,.711-.43.592.592,0,0,1,.428.716c-.327,1.319-.61,2.669-.845,4.01a.587.587,0,0,1-.577.489A.566.566,0,0,1,333.368,941.6Zm24.869-1.182a.593.593,0,0,1-.365-.752,36.7,36.7,0,0,1,1.585-3.894.583.583,0,0,1,.783-.277.593.593,0,0,1,.275.789,35.351,35.351,0,0,0-1.534,3.767.583.583,0,0,1-.745.367Zm66.17-1.964a35.315,35.315,0,0,0-1.712-3.684.594.594,0,0,1,.238-.8.584.584,0,0,1,.795.239,36.41,36.41,0,0,1,1.769,3.808.594.594,0,0,1-.328.77.579.579,0,0,1-.218.042A.587.587,0,0,1,424.407,938.456Zm12.324-.544c-.388-1.3-.837-2.6-1.336-3.859a.594.594,0,0,1,.328-.77.585.585,0,0,1,.762.33c.511,1.292.972,2.623,1.37,3.957a.594.594,0,0,1-.393.737.58.58,0,0,1-.169.025A.589.589,0,0,1,436.73,937.913Zm-89.675-1.372a.592.592,0,0,1-.364-.752c.448-1.315.96-2.628,1.523-3.9a.585.585,0,0,1,.775-.3.594.594,0,0,1,.3.781c-.549,1.243-1.049,2.523-1.487,3.805a.583.583,0,0,1-.745.368Zm101.643-.905c-.358-1.309-.769-2.624-1.219-3.91a.593.593,0,0,1,.358-.755.585.585,0,0,1,.748.36c.461,1.312.879,2.654,1.246,3.989a.588.588,0,1,1-1.132.316Zm-113.426-2.083a.592.592,0,0,1-.377-.745c.425-1.318.9-2.642,1.418-3.935a.586.586,0,0,1,.764-.328.594.594,0,0,1,.325.769c-.507,1.267-.975,2.565-1.391,3.857a.589.589,0,0,1-.559.41A.576.576,0,0,1,335.273,933.552Zm26.39-.643a.6.6,0,0,1-.183-.816,36.7,36.7,0,0,1,2.43-3.422.585.585,0,0,1,.826-.088.6.6,0,0,1,.088.833,35.16,35.16,0,0,0-2.352,3.309.585.585,0,0,1-.81.185Zm58.909-1.6a35.332,35.332,0,0,0-2.506-3.191.6.6,0,0,1,.049-.835.584.584,0,0,1,.829.049,36.536,36.536,0,0,1,2.588,3.3.6.6,0,0,1-.143.824.579.579,0,0,1-.337.107A.586.586,0,0,1,420.572,931.312Zm13.159-.985c-.6-1.21-1.27-2.409-1.98-3.567a.594.594,0,0,1,.191-.815.585.585,0,0,1,.808.192c.727,1.186,1.409,2.417,2.029,3.657a.594.594,0,0,1-.26.795.578.578,0,0,1-.264.064A.588.588,0,0,1,433.731,930.327ZM350.3,928.937a.594.594,0,0,1-.229-.8c.668-1.216,1.4-2.418,2.171-3.576a.586.586,0,0,1,.815-.16.594.594,0,0,1,.158.822c-.752,1.129-1.465,2.3-2.117,3.487a.588.588,0,0,1-.514.305A.58.58,0,0,1,350.3,928.937Zm95.7-1.021c-.534-1.242-1.121-2.487-1.743-3.7a.594.594,0,0,1,.251-.8.585.585,0,0,1,.791.254c.635,1.236,1.234,2.5,1.779,3.772a.59.59,0,0,1-.538.827A.588.588,0,0,1,445.994,927.915Zm-79.287-1.525a.6.6,0,0,1,.006-.837,36.78,36.78,0,0,1,3.14-2.77.582.582,0,0,1,.823.1.6.6,0,0,1-.1.831,35.292,35.292,0,0,0-3.037,2.681.583.583,0,0,1-.83-.007Zm-28.436-.554a.594.594,0,0,1-.271-.791c.6-1.248,1.257-2.492,1.945-3.7a.586.586,0,0,1,.8-.218.594.594,0,0,1,.215.808c-.673,1.181-1.315,2.4-1.906,3.624a.583.583,0,0,1-.785.273Zm76.944-.6a35.263,35.263,0,0,0-3.164-2.532.594.594,0,0,1-.141-.824.584.584,0,0,1,.818-.143A36.71,36.71,0,0,1,416,924.357a.6.6,0,0,1,.047.836.583.583,0,0,1-.828.047Zm14.257-1.859c-.8-1.086-1.665-2.153-2.561-3.17a.6.6,0,0,1,.049-.836.584.584,0,0,1,.829.049c.919,1.043,1.8,2.136,2.624,3.249a.6.6,0,0,1-.12.829.585.585,0,0,1-.821-.121ZM354.8,922.017a.594.594,0,0,1-.088-.833c.867-1.082,1.791-2.139,2.748-3.145a.585.585,0,0,1,.83-.016.6.6,0,0,1,.018.837c-.935.98-1.838,2.012-2.682,3.068a.584.584,0,0,1-.825.088Zm18.293-.809a.594.594,0,0,1,.2-.812,36.291,36.291,0,0,1,3.685-1.973.588.588,0,0,1,.779.292.594.594,0,0,1-.289.785,34.656,34.656,0,0,0-3.564,1.908.584.584,0,0,1-.806-.2Zm69.165-.559c-.7-1.159-1.453-2.31-2.236-3.422a.6.6,0,0,1,.139-.825.584.584,0,0,1,.818.14c.8,1.133,1.564,2.308,2.28,3.49a.6.6,0,0,1-.2.814.584.584,0,0,1-.806-.2Zm-33.637-.088a34.643,34.643,0,0,0-3.655-1.732.594.594,0,0,1-.326-.769.584.584,0,0,1,.763-.329,36.368,36.368,0,0,1,3.778,1.79.594.594,0,0,1,.236.8.587.587,0,0,1-.517.31A.574.574,0,0,1,408.62,920.561ZM342.3,918.619a.594.594,0,0,1-.16-.821c.768-1.153,1.586-2.294,2.431-3.389a.582.582,0,0,1,.823-.1.6.6,0,0,1,.1.831c-.829,1.074-1.631,2.192-2.383,3.323a.585.585,0,0,1-.488.262A.577.577,0,0,1,342.3,918.619Zm38.184-.978a.592.592,0,0,1,.377-.744,35.74,35.74,0,0,1,4.039-1.062.592.592,0,0,1,.229,1.161,34.553,34.553,0,0,0-3.905,1.026.58.58,0,0,1-.181.03A.587.587,0,0,1,380.483,917.641Zm20.652-.105a34.8,34.8,0,0,0-3.951-.833.592.592,0,0,1,.173-1.171,35.743,35.743,0,0,1,4.085.863.592.592,0,0,1-.153,1.162A.57.57,0,0,1,401.135,917.536Zm22.951-.261c-.977-.933-2.009-1.835-3.064-2.679a.6.6,0,0,1-.095-.833.586.586,0,0,1,.825-.1c1.082.867,2.137,1.791,3.141,2.747a.6.6,0,0,1,.022.837.583.583,0,0,1-.83.023Zm-35.593-1.384a.592.592,0,0,1,.538-.638c.976-.08,1.966-.121,2.947-.121.425-.009.818.006,1.225.021a.592.592,0,0,1-.039,1.183c-.394-.013-.77-.008-1.186-.02-.949,0-1.908.04-2.852.117l-.048,0A.59.59,0,0,1,388.493,915.89Zm-28.083.092a.6.6,0,0,1,.056-.835c1.039-.916,2.129-1.8,3.244-2.622a.584.584,0,0,1,.82.128.594.594,0,0,1-.126.826c-1.087.8-2.151,1.664-3.164,2.558a.585.585,0,0,1-.829-.055Zm77.148-2.015c-.857-1.056-1.759-2.093-2.681-3.082a.6.6,0,0,1,.026-.836.583.583,0,0,1,.83.026c.94,1.009,1.86,2.066,2.734,3.143a.6.6,0,0,1-.083.833.584.584,0,0,1-.826-.083Zm-19.818-1.775c-1.123-.75-2.293-1.46-3.477-2.108a.594.594,0,0,1-.235-.8.584.584,0,0,1,.8-.238c1.213.665,2.413,1.391,3.564,2.16a.6.6,0,0,1,.166.821.587.587,0,0,1-.491.265A.579.579,0,0,1,417.74,912.192Zm-70.468-.161a.594.594,0,0,1-.047-.835c.915-1.034,1.881-2.05,2.867-3.02a.583.583,0,0,1,.83.011.594.594,0,0,1-.01.836c-.968.951-1.913,1.948-2.812,2.962a.588.588,0,0,1-.438.2A.577.577,0,0,1,347.272,912.031Zm19.7-1.022a.594.594,0,0,1,.2-.813c1.181-.723,2.407-1.4,3.643-2.017a.584.584,0,0,1,.786.268.594.594,0,0,1-.266.793c-1.207.6-2.4,1.263-3.553,1.967a.585.585,0,0,1-.806-.2Zm43.649-2.72c-1.234-.541-2.507-1.036-3.786-1.466a.592.592,0,0,1,.373-1.123c1.311.443,2.618.949,3.883,1.5a.6.6,0,0,1,.3.779.587.587,0,0,1-.539.355A.57.57,0,0,1,410.618,908.29Zm21.375-.3c-.992-.928-2.027-1.831-3.075-2.684a.593.593,0,0,1-.088-.832.584.584,0,0,1,.825-.09c1.069.871,2.125,1.792,3.136,2.738a.6.6,0,0,1,.032.836.585.585,0,0,1-.83.032Zm-57.715-.739a.593.593,0,0,1,.334-.766c1.288-.506,2.613-.96,3.936-1.349a.584.584,0,0,1,.728.4.593.593,0,0,1-.4.733c-1.291.379-2.582.822-3.838,1.316a.576.576,0,0,1-.214.041A.587.587,0,0,1,374.278,907.256Zm-21.184-1.06a.6.6,0,0,1,.067-.834c1.05-.9,2.144-1.772,3.251-2.595a.583.583,0,0,1,.821.125.593.593,0,0,1-.124.826c-1.085.807-2.158,1.663-3.187,2.545a.582.582,0,0,1-.827-.068Zm49.84-.5c-1.308-.317-2.647-.579-3.979-.78a.592.592,0,0,1,.173-1.171c1.367.207,2.74.476,4.081.8a.592.592,0,0,1-.137,1.166A.6.6,0,0,1,402.934,905.7Zm-20.81-.857a.59.59,0,0,1,.461-.7c1.354-.272,2.736-.487,4.109-.639a.592.592,0,0,1,.129,1.176c-1.339.148-2.688.359-4.008.624a.639.639,0,0,1-.115.011A.588.588,0,0,1,382.124,904.839Zm12.8-.352c-1.345-.083-2.711-.109-4.055-.077a.6.6,0,0,1-.6-.578.591.591,0,0,1,.573-.606c1.376-.032,2.776-.006,4.154.08a.592.592,0,0,1-.035,1.182Zm30.743-1.642c-1.1-.779-2.253-1.53-3.412-2.233a.594.594,0,0,1-.2-.812.583.583,0,0,1,.805-.2c1.184.716,2.354,1.483,3.481,2.277a.6.6,0,0,1,.144.824.586.586,0,0,1-.482.252A.576.576,0,0,1,425.665,902.846Zm-66.016-1.625a.594.594,0,0,1,.18-.817c1.162-.744,2.363-1.457,3.572-2.119a.585.585,0,0,1,.8.238.6.6,0,0,1-.236.8c-1.185.648-2.364,1.347-3.5,2.077a.584.584,0,0,1-.811-.182Zm59.045-2.6c-1.2-.618-2.442-1.2-3.687-1.737a.592.592,0,0,1-.31-.776.584.584,0,0,1,.77-.313c1.27.544,2.535,1.141,3.761,1.772a.6.6,0,0,1,.256.8.586.586,0,0,1-.523.323A.567.567,0,0,1,418.694,898.623ZM366.818,897.2a.594.594,0,0,1,.291-.784c1.251-.576,2.538-1.114,3.826-1.6a.585.585,0,0,1,.755.347.593.593,0,0,1-.344.761c-1.262.476-2.524,1-3.75,1.569a.585.585,0,0,1-.778-.292Zm44.39-1.793c-1.274-.444-2.582-.849-3.886-1.2a.591.591,0,0,1,.3-1.143c1.331.361,2.665.774,3.965,1.227a.593.593,0,0,1,.363.752.584.584,0,0,1-.746.366Zm-36.737-1.186a.592.592,0,0,1,.4-.735c1.32-.4,2.671-.749,4.014-1.05a.591.591,0,0,1,.256,1.155c-1.317.3-2.641.643-3.935,1.03a.573.573,0,0,1-.167.025A.588.588,0,0,1,374.471,894.226Zm28.89-.943c-1.324-.262-2.675-.48-4.014-.648a.592.592,0,0,1,.146-1.174c1.365.172,2.743.394,4.1.661a.592.592,0,0,1-.113,1.173A.621.621,0,0,1,403.361,893.282Zm-20.9-.937a.591.591,0,0,1,.492-.673c1.359-.207,2.744-.368,4.118-.481a.591.591,0,0,1,.1,1.179c-1.348.111-2.706.269-4.038.472a.726.726,0,0,1-.088.006A.589.589,0,0,1,382.464,892.346Zm12.834-.078c-1.345-.076-2.72-.105-4.065-.087h-.007a.592.592,0,0,1-.008-1.184c1.378-.018,2.775.013,4.145.089a.592.592,0,0,1-.032,1.183Z" transform="translate(-332.006 -890.991)" fill="#ffb534"/>
</svg>
