<svg xmlns="http://www.w3.org/2000/svg" width="15.999" height="15.999" viewBox="0 0 15.999 15.999">
  <path id="Shape_1" data-name="Shape 1" d="M1304.875,1898a1.877,1.877,0,0,1-1.875-1.875v-11a1.877,1.877,0,0,1,1.875-1.875h.75V1882h1.25v1.249h8.25V1882h1.25v1.249h.75a1.877,1.877,0,0,1,1.875,1.875v11a1.877,1.877,0,0,1-1.875,1.875Zm-.625-1.875a.625.625,0,0,0,.625.625h12.25a.626.626,0,0,0,.625-.625v-8.25h-13.5Zm0-11v1.5h13.5v-1.5a.626.626,0,0,0-.625-.625h-.75v1.25h-1.25v-1.25h-8.25v1.25h-1.25v-1.25h-.75A.625.625,0,0,0,1304.25,1885.124Zm8.619,10.316v-1.25h1.25v1.25Zm-2.5,0v-1.25h1.25v1.25Zm-2.5,0v-1.25h1.25v1.25Zm-2.5,0v-1.25h1.25v1.25Zm10-2.5v-1.25h1.25v1.25Zm-2.5,0v-1.25h1.25v1.25Zm-2.5,0v-1.25h1.25v1.25Zm-2.5,0v-1.25h1.25v1.25Zm-2.5,0v-1.25h1.25v1.25Zm10-2.5v-1.25h1.25v1.25Zm-2.5,0v-1.25h1.25v1.25Zm-2.5,0v-1.25h1.25v1.25Zm-2.5,0v-1.25h1.25v1.25Zm-2.5,0v-1.25h1.25v1.25Z" transform="translate(-1303 -1882)" fill="#fe3e57"/>
</svg>
