<svg xmlns="http://www.w3.org/2000/svg" width="126" height="53.001" viewBox="0 0 126 53.001">
  <path id="Shape_28" data-name="Shape 28" d="M1568.52,5709.26a1.74,1.74,0,1,1,1.74,1.74A1.739,1.739,0,0,1,1568.52,5709.26Zm-13.711,0a1.74,1.74,0,1,1,1.74,1.74A1.74,1.74,0,0,1,1554.81,5709.26Zm-13.49,0a1.74,1.74,0,1,1,1.74,1.74A1.74,1.74,0,0,1,1541.32,5709.26Zm-13.709,0a1.74,1.74,0,1,1,1.74,1.74A1.739,1.739,0,0,1,1527.61,5709.26Zm-13.5,0a1.74,1.74,0,1,1,1.74,1.74A1.739,1.739,0,0,1,1514.11,5709.26Zm-13.711,0a1.74,1.74,0,1,1,1.74,1.74A1.74,1.74,0,0,1,1500.4,5709.26Zm-13.49,0a1.74,1.74,0,1,1,1.74,1.74A1.74,1.74,0,0,1,1486.91,5709.26Zm-13.709,0a1.74,1.74,0,1,1,1.74,1.74A1.739,1.739,0,0,1,1473.2,5709.26Zm-13.49,0a1.74,1.74,0,1,1,1.74,1.74A1.739,1.739,0,0,1,1459.711,5709.26Zm-13.711,0a1.74,1.74,0,1,1,1.74,1.74A1.74,1.74,0,0,1,1446,5709.26Zm122.521-16.51a1.74,1.74,0,1,1,1.74,1.74A1.739,1.739,0,0,1,1568.52,5692.75Zm-13.711,0a1.74,1.74,0,1,1,1.74,1.74A1.74,1.74,0,0,1,1554.81,5692.75Zm-13.49,0a1.74,1.74,0,1,1,1.74,1.74A1.74,1.74,0,0,1,1541.32,5692.75Zm-13.709,0a1.74,1.74,0,1,1,1.74,1.74A1.739,1.739,0,0,1,1527.61,5692.75Zm-13.5,0a1.74,1.74,0,1,1,1.74,1.74A1.739,1.739,0,0,1,1514.11,5692.75Zm-13.711,0a1.74,1.74,0,1,1,1.74,1.74A1.74,1.74,0,0,1,1500.4,5692.75Zm-13.49,0a1.74,1.74,0,1,1,1.74,1.74A1.74,1.74,0,0,1,1486.91,5692.75Zm-13.709,0a1.74,1.74,0,1,1,1.74,1.74A1.739,1.739,0,0,1,1473.2,5692.75Zm-13.49,0a1.74,1.74,0,1,1,1.74,1.74A1.739,1.739,0,0,1,1459.711,5692.75Zm-13.711,0a1.74,1.74,0,1,1,1.74,1.74A1.74,1.74,0,0,1,1446,5692.75Zm122.521-16.5a1.74,1.74,0,1,1,1.74,1.739A1.74,1.74,0,0,1,1568.52,5676.25Zm-13.711,0a1.74,1.74,0,1,1,1.74,1.739A1.741,1.741,0,0,1,1554.81,5676.25Zm-13.49,0a1.74,1.74,0,1,1,1.74,1.739A1.741,1.741,0,0,1,1541.32,5676.25Zm-13.709,0a1.74,1.74,0,1,1,1.74,1.739A1.74,1.74,0,0,1,1527.61,5676.25Zm-13.5,0a1.74,1.74,0,1,1,1.74,1.739A1.74,1.74,0,0,1,1514.11,5676.25Zm-13.711,0a1.74,1.74,0,1,1,1.74,1.739A1.741,1.741,0,0,1,1500.4,5676.25Zm-13.49,0a1.74,1.74,0,1,1,1.74,1.739A1.741,1.741,0,0,1,1486.91,5676.25Zm-13.709,0a1.74,1.74,0,1,1,1.74,1.739A1.74,1.74,0,0,1,1473.2,5676.25Zm-13.49,0a1.74,1.74,0,1,1,1.74,1.739A1.74,1.74,0,0,1,1459.711,5676.25Zm-13.711,0a1.74,1.74,0,1,1,1.74,1.739A1.741,1.741,0,0,1,1446,5676.25Zm122.521-16.51a1.74,1.74,0,1,1,1.74,1.739A1.74,1.74,0,0,1,1568.52,5659.741Zm-13.711,0a1.74,1.74,0,1,1,1.74,1.739A1.741,1.741,0,0,1,1554.81,5659.741Zm-13.49,0a1.74,1.74,0,1,1,1.74,1.739A1.741,1.741,0,0,1,1541.32,5659.741Zm-13.709,0a1.74,1.74,0,1,1,1.74,1.739A1.74,1.74,0,0,1,1527.61,5659.741Zm-13.5,0a1.74,1.74,0,1,1,1.74,1.739A1.74,1.74,0,0,1,1514.11,5659.741Zm-13.711,0a1.74,1.74,0,1,1,1.74,1.739A1.741,1.741,0,0,1,1500.4,5659.741Zm-13.49,0a1.74,1.74,0,1,1,1.74,1.739A1.741,1.741,0,0,1,1486.91,5659.741Zm-13.709,0a1.74,1.74,0,1,1,1.74,1.739A1.74,1.74,0,0,1,1473.2,5659.741Zm-13.49,0a1.74,1.74,0,1,1,1.74,1.739A1.74,1.74,0,0,1,1459.711,5659.741Zm-13.711,0a1.74,1.74,0,1,1,1.74,1.739A1.741,1.741,0,0,1,1446,5659.741Z" transform="translate(-1446 -5658)" fill="#fe3e57"/>
</svg>
