<svg xmlns="http://www.w3.org/2000/svg" width="22.004" height="19.998" viewBox="0 0 22.004 19.998">
  <path id="cart_icon" d="M1524.692,62.273A2.744,2.744,0,1,1,1527.436,65,2.738,2.738,0,0,1,1524.692,62.273Zm1.646,0a1.1,1.1,0,1,0,1.1-1.09A1.1,1.1,0,0,0,1526.338,62.273Zm-11.605,0A2.744,2.744,0,1,1,1517.477,65,2.738,2.738,0,0,1,1514.732,62.273Zm1.646,0a1.1,1.1,0,1,0,1.1-1.09A1.1,1.1,0,0,0,1516.379,62.273Zm0-3.9a.821.821,0,0,1-.8-.627L1512.9,46.634h-2.066a.817.817,0,1,1,0-1.634h2.715a.823.823,0,0,1,.8.627l.741,3.078h16.1a.825.825,0,0,1,.648.314.816.816,0,0,1,.151.7l-2,8.038a.822.822,0,0,1-.8.62Zm.65-1.635h11.519l1.6-6.4h-14.656Z" transform="translate(-1510.014 -44.999)" fill="#29282d"/>
</svg>
