<svg xmlns="http://www.w3.org/2000/svg" width="19.994" height="20.002" viewBox="0 0 19.994 20.002">
  <path id="heart_icon" d="M1484.778,49.589a6.689,6.689,0,0,0-4.173-4.371c-1.7-.595-3.747,0-5.578,1.611-1.831-1.569-3.875-2.122-5.578-1.569a6.89,6.89,0,0,0-4.173,4.371c-.468,1.57-.511,4.117,1.959,7.215,1.107,1.4,2.81,3.4,4.216,4.965,2.683,3.014,3.109,3.183,3.492,3.183h.17c.383,0,.766-.168,3.449-3.224,1.405-1.613,3.109-3.609,4.216-4.966C1485.247,53.706,1485.247,51.159,1484.778,49.589Zm-3.279,6.2c-1.959,2.462-5.323,6.324-6.472,7.385-1.15-1.061-4.514-4.924-6.473-7.385-1.618-1.994-2.214-3.947-1.7-5.687a4.993,4.993,0,0,1,3.109-3.225c1.235-.467,2.9.169,4.429,1.655a.846.846,0,0,0,1.064.126.417.417,0,0,0,.213-.169c1.533-1.443,3.194-2.079,4.429-1.655A5.175,5.175,0,0,1,1483.2,50.1C1483.714,51.8,1483.118,53.79,1481.5,55.784Z" transform="translate(-1465.025 -44.992)" fill="#29282d"/>
</svg>
