<svg xmlns="http://www.w3.org/2000/svg" width="8.991" height="9.981" viewBox="0 0 8.991 9.981">
  <path id="angle_right" d="M971.141,325.889l-.466-.5a.331.331,0,0,1-.093-.23.327.327,0,0,1,.093-.23l3.659-3.93-3.659-3.93a.332.332,0,0,1,0-.46l.466-.5a.279.279,0,0,1,.427,0l4.338,4.66A.329.329,0,0,1,976,321a.323.323,0,0,1-.093.229l-4.338,4.661a.279.279,0,0,1-.427,0Zm-3.575,0-.465-.5a.332.332,0,0,1-.093-.23.327.327,0,0,1,.093-.23l3.658-3.93-3.658-3.93a.332.332,0,0,1,0-.46l.465-.5a.28.28,0,0,1,.428,0l4.337,4.66a.326.326,0,0,1,.094.23.32.32,0,0,1-.094.229l-4.337,4.661a.28.28,0,0,1-.428,0Z" transform="translate(-967.009 -316.008)" fill="#727272"/>
</svg>
