<svg xmlns="http://www.w3.org/2000/svg" width="15.985" height="16" viewBox="0 0 15.985 16">
  <path id="home_icon" d="M893,310l-7.77,6.858a.663.663,0,0,0-.064.925h0a.638.638,0,0,0,.909.065l.286-.253v6.44A1.95,1.95,0,0,0,888.294,326h3.61v-5.274a1.137,1.137,0,0,1,1.128-1.146h0a1.137,1.137,0,0,1,1.128,1.146V326H897.7a1.95,1.95,0,0,0,1.934-1.965v-6.44l.286.253a.638.638,0,0,0,.909-.065h0a.663.663,0,0,0-.064-.924Zm5.35,14.035a.65.65,0,0,1-.644.656h-2.256v-3.964a2.437,2.437,0,0,0-2.417-2.456h0a2.437,2.437,0,0,0-2.417,2.456v3.964h-2.32a.65.65,0,0,1-.644-.656v-7.578l5.35-4.722,5.35,4.722Z" transform="translate(-885.006 -309.999)" fill="#727272"/>
</svg>
