<svg xmlns="http://www.w3.org/2000/svg" width="600.001" height="557.035" viewBox="0 0 600.001 557.035">
  <g id="Illlustrations" transform="translate(-974.999 -230)">
    <g id="Vector_Smart_Object" data-name="Vector Smart Object" transform="translate(615.789 76.032)">
      <g id="Сгруппировать_53" data-name="Сгруппировать 53">
        <g id="Сгруппировать_5" data-name="Сгруппировать 5">
          <path id="Контур_51" data-name="Контур 51" d="M642.508,464.047l-17.426-.114-.2,30.7-42.213-.272.2-30.7-63.1-.405.2-31.456,66.426-96,39.508.253-.614,95.885,17.426.114Zm-59.434-32.385.12-18.439q.032-5.209.467-14.044a90.77,90.77,0,0,1,.657-9.27l-1.192,0a114.7,114.7,0,0,1-8.435,15.563l-17.7,26.028Z" fill="#a4c639"/>
        </g>
        <path id="Контур_52" data-name="Контур 52" d="M625.081,463.934l17.426.114.205-32-17.426-.114.2-31.426a46.513,46.513,0,0,0-5.5,5.542q-15.555,18.6-18.807,60.772a169.929,169.929,0,0,0-.086,27.653l23.787.154Z" opacity="0.1"/>
        <g id="Сгруппировать_6" data-name="Сгруппировать 6">
          <path id="Контур_53" data-name="Контур 53" d="M725.5,475.662q-3.239,41.963-18.779,60.394t-44.46,16.187q-28.278-2.191-41.055-23.69t-9.668-61.731q3.255-42.178,18.807-60.772T674.813,389.7q28.165,2.185,40.991,23.8T725.5,475.662Zm-71.552-5.549q-2.071,26.819.5,37.138t10.447,10.928q7.988.621,12.082-9.508t6.113-36.3q2.029-26.279-.5-37.082t-10.413-11.417q-7.875-.611-12.007,9.3T653.946,470.113Z" fill="#f0c419"/>
        </g>
        <path id="Контур_54" data-name="Контур 54" d="M715.8,413.5a47.835,47.835,0,0,0-9.875-11.91l-17.523,34.139,3.908,31.212,33.772-4.247Q726.478,431.524,715.8,413.5Z" opacity="0.1"/>
        <g id="Сгруппировать_7" data-name="Сгруппировать 7">
          <path id="Контур_55" data-name="Контур 55" d="M821.6,444.476l-17.291,2.175,3.812,30.459-41.886,5.266-3.814-30.459-62.612,7.872L695.9,428.576l53.321-103.89,39.2-4.929L800.329,414.9l17.291-2.175Zm-63.154-24.31-2.288-18.3q-.649-5.167-1.37-13.982a91.763,91.763,0,0,1-.563-9.279l-1.179.148a115,115,0,0,1-6.329,16.539L732.559,423.42Z" fill="#d36bc5"/>
        </g>
        <g id="Сгруппировать_22" data-name="Сгруппировать 22">
          <g id="Сгруппировать_8" data-name="Сгруппировать 8">
            <path id="Контур_56" data-name="Контур 56" d="M810.47,583.455H532.557l-32.4-220.3h350.9ZM546.115,567.721H797.4l34.786-188.832H518.341Z" fill="#dadada"/>
          </g>
          <g id="Сгруппировать_9" data-name="Сгруппировать 9">
            <rect id="Прямоугольник_1" data-name="Прямоугольник 1" width="310.348" height="8.579" transform="translate(520.261 428.045)" fill="#dadada"/>
          </g>
          <g id="Сгруппировать_10" data-name="Сгруппировать 10">
            <rect id="Прямоугольник_2" data-name="Прямоугольник 2" width="284.607" height="8.579" transform="translate(533.131 510.514)" fill="#dadada"/>
          </g>
          <g id="Сгруппировать_11" data-name="Сгруппировать 11">
            <rect id="Прямоугольник_3" data-name="Прямоугольник 3" width="8.561" height="204.567" transform="translate(671.155 371.021)" fill="#dadada"/>
          </g>
          <g id="Сгруппировать_14" data-name="Сгруппировать 14">
            <g id="Сгруппировать_12" data-name="Сгруппировать 12">
              <rect id="Прямоугольник_4" data-name="Прямоугольник 4" width="8.561" height="205.663" transform="matrix(0.995, -0.104, 0.103, 0.995, 570.86, 371.464)" fill="#dadada"/>
            </g>
            <g id="Сгруппировать_13" data-name="Сгруппировать 13">
              <rect id="Прямоугольник_5" data-name="Прямоугольник 5" width="206.105" height="8.563" transform="matrix(0.122, -0.993, 0.992, 0.122, 746.389, 575.066)" fill="#dadada"/>
            </g>
          </g>
          <g id="Сгруппировать_15" data-name="Сгруппировать 15">
            <path id="Контур_57" data-name="Контур 57" d="M503.787,384.182l-37.521-37.345H416.678V320.085h60.593L522.6,365.2Z" fill="#dadada"/>
          </g>
          <g id="Сгруппировать_16" data-name="Сгруппировать 16">
            <path id="Контур_58" data-name="Контур 58" d="M792.431,657.547H538.3a50.617,50.617,0,0,1,0-101.234h1.036v26.753H538.3a23.866,23.866,0,0,0,0,47.731H792.431Z" fill="#dadada"/>
          </g>
          <g id="Сгруппировать_17" data-name="Сгруппировать 17">
            <path id="Контур_59" data-name="Контур 59" d="M448.364,346.836H400.209a13.375,13.375,0,0,1,0-26.75h48.154a13.375,13.375,0,0,1,0,26.75Z" fill="#e2413e"/>
          </g>
          <g id="Сгруппировать_18" data-name="Сгруппировать 18">
            <ellipse id="Эллипс_1" data-name="Эллипс 1" cx="47.468" cy="47.372" rx="47.468" ry="47.372" transform="matrix(0.155, -0.988, 0.988, 0.156, 733.047, 696.014)" fill="#28384f"/>
          </g>
          <g id="Сгруппировать_19" data-name="Сгруппировать 19">
            <ellipse id="Эллипс_2" data-name="Эллипс 2" cx="23.865" cy="23.817" rx="23.865" ry="23.817" transform="matrix(0.155, -0.988, 0.988, 0.155, 759.984, 676.376)" fill="#fff"/>
          </g>
          <g id="Сгруппировать_20" data-name="Сгруппировать 20">
            <ellipse id="Эллипс_3" data-name="Эллипс 3" cx="47.468" cy="47.372" rx="47.468" ry="47.372" transform="matrix(0.161, -0.987, 0.987, 0.162, 484.37, 695.69)" fill="#28384f"/>
          </g>
          <g id="Сгруппировать_21" data-name="Сгруппировать 21">
            <ellipse id="Эллипс_4" data-name="Эллипс 4" cx="23.865" cy="23.817" rx="23.865" ry="23.817" transform="matrix(0.16, -0.987, 0.987, 0.161, 511.426, 676.218)" fill="#fff"/>
          </g>
        </g>
        <g id="Сгруппировать_23" data-name="Сгруппировать 23">
          <path id="Контур_60" data-name="Контур 60" d="M545.259,238.511a6.065,6.065,0,1,1-6.063-6.076A6.072,6.072,0,0,1,545.259,238.511Z" fill="#f0c419"/>
        </g>
        <g id="Сгруппировать_24" data-name="Сгруппировать 24">
          <ellipse id="Эллипс_5" data-name="Эллипс 5" cx="7.491" cy="7.507" rx="7.491" ry="7.507" transform="translate(685.55 333.293)" fill="#33aeff"/>
        </g>
        <g id="Сгруппировать_25" data-name="Сгруппировать 25">
          <ellipse id="Эллипс_6" data-name="Эллипс 6" cx="5.886" cy="5.898" rx="5.886" ry="5.898" transform="translate(883.941 299.282)" fill="#a4c639"/>
        </g>
        <g id="Сгруппировать_26" data-name="Сгруппировать 26">
          <ellipse id="Эллипс_7" data-name="Эллипс 7" cx="5.886" cy="5.898" rx="5.886" ry="5.898" transform="translate(549.701 482.13)" fill="#f0c419"/>
        </g>
        <g id="Сгруппировать_27" data-name="Сгруппировать 27">
          <ellipse id="Эллипс_8" data-name="Эллипс 8" cx="5.886" cy="5.898" rx="5.886" ry="5.898" transform="translate(684.767 154.505)" fill="#d36bc5"/>
        </g>
        <g id="Сгруппировать_28" data-name="Сгруппировать 28">
          <ellipse id="Эллипс_9" data-name="Эллипс 9" cx="5.886" cy="5.898" rx="5.886" ry="5.898" transform="translate(933.346 403.843)" fill="#e2413e"/>
        </g>
        <g id="Сгруппировать_29" data-name="Сгруппировать 29">
          <ellipse id="Эллипс_10" data-name="Эллипс 10" cx="5.886" cy="5.898" rx="5.886" ry="5.898" transform="translate(701.888 612.245)" fill="#a4c639"/>
        </g>
        <g id="Сгруппировать_30" data-name="Сгруппировать 30">
          <ellipse id="Эллипс_11" data-name="Эллипс 11" cx="5.886" cy="5.898" rx="5.886" ry="5.898" transform="translate(373.303 263.892)" fill="#e2413e"/>
        </g>
        <g id="Сгруппировать_31" data-name="Сгруппировать 31">
          <path id="Контур_61" data-name="Контур 61" d="M456.163,386.543A8.166,8.166,0,1,1,448,378.361,8.177,8.177,0,0,1,456.163,386.543Z" fill="#a4c639"/>
        </g>
        <g id="Сгруппировать_32" data-name="Сгруппировать 32">
          <path id="Контур_62" data-name="Контур 62" d="M731.219,195.972a3.924,3.924,0,1,1-3.923-3.931A3.927,3.927,0,0,1,731.219,195.972Z" fill="#e2413e"/>
        </g>
        <g id="Сгруппировать_33" data-name="Сгруппировать 33">
          <ellipse id="Эллипс_12" data-name="Эллипс 12" cx="3.924" cy="3.932" rx="3.924" ry="3.932" transform="translate(529.207 344.375)" fill="#d36bc5"/>
        </g>
        <g id="Сгруппировать_34" data-name="Сгруппировать 34">
          <path id="Контур_63" data-name="Контур 63" d="M874.595,437.123a4.78,4.78,0,1,1-4.779-4.789A4.785,4.785,0,0,1,874.595,437.123Z" fill="#33aeff"/>
        </g>
        <g id="Сгруппировать_35" data-name="Сгруппировать 35">
          <ellipse id="Эллипс_13" data-name="Эллипс 13" cx="4.78" cy="4.79" rx="4.78" ry="4.79" transform="translate(622.615 598.34)" fill="#d36bc5"/>
        </g>
        <g id="Сгруппировать_36" data-name="Сгруппировать 36">
          <path id="Контур_64" data-name="Контур 64" d="M561.147,173.286h-2.881V170.4a3.375,3.375,0,1,0-6.75,0v2.887h-2.881a3.382,3.382,0,0,0,0,6.765h2.881v2.887a3.375,3.375,0,1,0,6.75,0v-2.887h2.881a3.382,3.382,0,0,0,0-6.765Z" fill="#28384f"/>
        </g>
        <g id="Сгруппировать_37" data-name="Сгруппировать 37">
          <path id="Контур_65" data-name="Контур 65" d="M861.661,511.423h-2.883v-2.889a3.374,3.374,0,1,0-6.748,0v2.889h-2.883a3.381,3.381,0,0,0,0,6.763h2.883v2.889a3.374,3.374,0,1,0,6.748,0v-2.889h2.883a3.381,3.381,0,0,0,0-6.763Z" fill="#28384f"/>
        </g>
        <g id="Сгруппировать_38" data-name="Сгруппировать 38">
          <path id="Контур_66" data-name="Контур 66" d="M871.292,235.13h-2.883v-2.889a3.374,3.374,0,1,0-6.748,0v2.889h-2.883a3.381,3.381,0,0,0,0,6.763h2.883v2.889a3.374,3.374,0,1,0,6.748,0v-2.889h2.883a3.381,3.381,0,0,0,0-6.763Z" fill="#28384f"/>
        </g>
        <g id="Сгруппировать_39" data-name="Сгруппировать 39">
          <path id="Контур_67" data-name="Контур 67" d="M477.106,460.272h-2.881v-2.889a3.375,3.375,0,1,0-6.751,0v2.889h-2.881a3.381,3.381,0,0,0,0,6.763h2.881v2.889a3.375,3.375,0,1,0,6.751,0v-2.889h2.881a3.381,3.381,0,0,0,0-6.763Z" fill="#28384f"/>
        </g>
        <g id="Сгруппировать_40" data-name="Сгруппировать 40">
          <path id="Контур_68" data-name="Контур 68" d="M470.989,270.853a6.369,6.369,0,0,1-3.514-1.055L447.923,256.95a6.43,6.43,0,0,1,7.042-10.761l19.552,12.848a6.436,6.436,0,0,1-3.527,11.816Z" fill="#d36bc5"/>
        </g>
        <g id="Сгруппировать_41" data-name="Сгруппировать 41">
          <path id="Контур_69" data-name="Контур 69" d="M809.065,214.742a6.435,6.435,0,0,1-5.244-10.141l17.332-24.666a6.425,6.425,0,1,1,10.5,7.408l-17.332,24.666A6.407,6.407,0,0,1,809.065,214.742Z" fill="#a4c639"/>
        </g>
        <g id="Сгруппировать_42" data-name="Сгруппировать 42">
          <path id="Контур_70" data-name="Контур 70" d="M925.673,347.237A6.437,6.437,0,0,1,924,334.589l27.111-7.34a6.433,6.433,0,0,1,3.347,12.423l-27.111,7.34A6.394,6.394,0,0,1,925.673,347.237Z" fill="#d36bc5"/>
        </g>
        <g id="Сгруппировать_43" data-name="Сгруппировать 43">
          <path id="Контур_71" data-name="Контур 71" d="M885.647,584.165a6.377,6.377,0,0,1-3.767-1.227l-22.116-16.086a6.43,6.43,0,0,1,7.544-10.413l22.116,16.086a6.435,6.435,0,0,1-3.778,11.64Z" fill="#a4c639"/>
        </g>
        <g id="Сгруппировать_44" data-name="Сгруппировать 44">
          <path id="Контур_72" data-name="Контур 72" d="M433.414,551.495a6.436,6.436,0,0,1-3.735-11.672l22.751-16.279a6.43,6.43,0,0,1,7.463,10.473L437.14,550.3A6.389,6.389,0,0,1,433.414,551.495Z" fill="#f0c419"/>
        </g>
        <g id="Сгруппировать_45" data-name="Сгруппировать 45">
          <path id="Контур_73" data-name="Контур 73" d="M637.975,202.409a6.424,6.424,0,0,1-6.269-5.079l-7.667-35.568a6.422,6.422,0,1,1,12.553-2.718l7.667,35.57a6.429,6.429,0,0,1-6.284,7.794Z" fill="#f0c419"/>
        </g>
        <g id="Сгруппировать_46" data-name="Сгруппировать 46">
          <path id="Контур_74" data-name="Контур 74" d="M365.631,431.907a6.437,6.437,0,0,1-1.931-12.573l27.109-8.579a6.434,6.434,0,0,1,3.868,12.273l-27.109,8.579A6.407,6.407,0,0,1,365.631,431.907Z" fill="#a4c639"/>
        </g>
        <g id="Сгруппировать_47" data-name="Сгруппировать 47">
          <path id="Контур_75" data-name="Контур 75" d="M941.378,474.8a6.534,6.534,0,0,1-1.231-.12l-24.256-4.712a6.435,6.435,0,0,1,2.446-12.635l24.256,4.714a6.437,6.437,0,0,1-1.216,12.753Z" fill="#f0c419"/>
        </g>
        <g id="Сгруппировать_48" data-name="Сгруппировать 48">
          <path id="Контур_76" data-name="Контур 76" d="M560.648,315.985q-9.3,2.159-15.594-1.609t-8.4-12.923q-2.186-9.459,1.415-15.619t12.444-8.215q8.418-1.953,14.019,1.383t7.512,11.606l1.323,5.733-22.98,5.328a6.536,6.536,0,0,0,3.418,4.378,9.165,9.165,0,0,0,6.28.42,29.134,29.134,0,0,0,6.083-2.087,31.786,31.786,0,0,0,5.657-3.62l2.138,9.259a23.323,23.323,0,0,1-5.751,3.59A44.4,44.4,0,0,1,560.648,315.985Zm-7.656-29.706a5.48,5.48,0,0,0-3.465,2.314,6.919,6.919,0,0,0-.753,4.912l11.048-2.563a6.592,6.592,0,0,0-2.526-3.959A5.168,5.168,0,0,0,552.992,286.279Z" fill="#28384f"/>
        </g>
        <g id="Сгруппировать_49" data-name="Сгруппировать 49">
          <path id="Контур_77" data-name="Контур 77" d="M627.1,248.484a19.208,19.208,0,0,1,3.24.543l.728.2-2.213,12.339a19.277,19.277,0,0,0-4.439-.779q-4.305-.36-6.419,1.45a7.75,7.75,0,0,0-2.423,5.514l-1.562,18.772-13.15-1.1,3.176-38.185,9.788.817,1.543,6.272.64.054a13.212,13.212,0,0,1,5-4.519A11.017,11.017,0,0,1,627.1,248.484Z" fill="#28384f"/>
        </g>
        <g id="Сгруппировать_50" data-name="Сгруппировать 50">
          <path id="Контур_78" data-name="Контур 78" d="M684.171,267.644a19.111,19.111,0,0,1,3.266-.339l.755,0,1.137,12.483a19.331,19.331,0,0,0-4.486.431q-4.247.8-5.807,3.1a7.777,7.777,0,0,0-.873,5.965L681.63,307.8l-12.966,2.441-7.057-37.659,9.653-1.815,3.148,5.634.631-.12a13.24,13.24,0,0,1,3.621-5.686A11.015,11.015,0,0,1,684.171,267.644Z" fill="#28384f"/>
        </g>
        <g id="Сгруппировать_51" data-name="Сгруппировать 51">
          <path id="Контур_79" data-name="Контур 79" d="M818.815,271.222a19.188,19.188,0,0,1,3.279.165l.747.112-.781,12.511a19.582,19.582,0,0,0-4.5-.262q-4.318.138-6.211,2.179a7.762,7.762,0,0,0-1.774,5.757l.6,18.827-13.188.423-1.218-38.3,9.813-.315,2.252,6.053.642-.021a13.226,13.226,0,0,1,4.447-5.066A11.019,11.019,0,0,1,818.815,271.222Z" fill="#28384f"/>
        </g>
        <g id="Сгруппировать_52" data-name="Сгруппировать 52">
          <path id="Контур_80" data-name="Контур 80" d="M762.339,271.861q-.944,13.085-5.755,18.86t-13.837,5.122q-8.816-.64-12.837-7.322t-3.114-19.229q.947-13.152,5.764-18.978t13.837-5.169q8.787.634,12.818,7.35T762.339,271.861Zm-22.315-1.613q-.6,8.368.214,11.578t3.273,3.389q2.495.18,3.75-2.983t1.851-11.327q.588-8.194-.218-11.561t-3.264-3.539q-2.459-.18-3.728,2.915T740.024,270.248Z" fill="#28384f"/>
        </g>
      </g>
    </g>
  </g>
</svg>
