<svg xmlns="http://www.w3.org/2000/svg" width="19.99" height="20.009" viewBox="0 0 19.99 20.009">
  <path id="phone_icon" d="M404.613,1555.153l-7.773-7.784a6.333,6.333,0,0,1-.305-8.594l4.958,4.962a1.321,1.321,0,0,0,.09,1.749l4.912,4.92a1.318,1.318,0,0,0,1.747.09l4.958,4.963a6.282,6.282,0,0,1-8.587-.305Zm4.48-5.464.414-.414a1.8,1.8,0,0,1,2.485,0l2.485,2.487a1.759,1.759,0,0,1,0,2.487l-.415.415Zm-11.765-11.777.415-.415a1.8,1.8,0,0,1,2.485,0l2.484,2.487a1.758,1.758,0,0,1,0,2.487l-.414.415Z" transform="translate(-395.001 -1536.999)" fill="#fe3e57"/>
</svg>
