<svg xmlns="http://www.w3.org/2000/svg" width="17.999" height="20.008" viewBox="0 0 17.999 20.008">
  <path id="Shape_1" data-name="Shape 1" d="M397.8,1757a1.813,1.813,0,0,1-.771-.176l5.819-5.686h4.3l5.819,5.686a1.813,1.813,0,0,1-.771.176Zm10.448-6.448c2.157-2.109,3.621-3.538,5.751-5.619v10.309a1.706,1.706,0,0,1-.181.753ZM396,1755.247v-10.309l5.751,5.619-5.57,5.443A1.706,1.706,0,0,1,396,1755.247Zm6.848-5.276L399.6,1746.8v-9.159a.649.649,0,0,1,.656-.642h9.374a.76.76,0,0,1,.769.751v9.05l-3.248,3.173Zm-2.048-6.448a4.07,4.07,0,0,0,1.939,3.457,4.376,4.376,0,0,0,4.176.222.588.588,0,1,0-.5-1.065,3.174,3.174,0,0,1-3.028-.145,2.907,2.907,0,0,1-1.387-2.47,3,3,0,0,1,6,0,.6.6,0,0,1-1.2,0,1.8,1.8,0,1,0-1.8,1.758,49.745,49.745,0,0,0,4.2-1.758,4.2,4.2,0,0,0-8.4,0Zm10.8-1.416,1.8,1.759-1.8,1.759Zm-15,1.759,1.8-1.759v3.517Zm7.8-.343a.6.6,0,0,1,1.192-.04c-.066.347-.176.626-.592.626A.594.594,0,0,1,404.4,1743.523Z" transform="translate(-396 -1736.996)" fill="#fe3e57"/>
</svg>
