<svg width="0" height="0" class="hidden">


  <symbol xmlns="http://www.w3.org/2000/svg" viewBox="0 0 22.004 19.998" id="cart">
      <path d="M14.678 17.274a2.744 2.744 0 112.744 2.727 2.738 2.738 0 01-2.744-2.727zm1.646 0a1.1 1.1 0 101.1-1.09 1.1 1.1 0 00-1.1 1.09zm-11.605 0a2.744 2.744 0 112.744 2.727 2.738 2.738 0 01-2.745-2.727zm1.646 0a1.1 1.1 0 101.1-1.09 1.1 1.1 0 00-1.1 1.09zm0-3.9a.821.821 0 01-.8-.627L2.886 1.635H.82a.817.817 0 110-1.634h2.715a.823.823 0 01.8.627l.741 3.078h16.1a.825.825 0 01.648.314.816.816 0 01.151.7l-2 8.038a.822.822 0 01-.8.62zm.65-1.635h11.519l1.6-6.4H5.478z"></path>
  </symbol>


  <symbol xmlns="http://www.w3.org/2000/svg" viewBox="0 0 12 16" id="facebook">
    <path d="M9.813 9.203l.5-2.96h-3.13V4.315c0-.808.442-1.597 1.84-1.597h1.422V.199S9.156 0 7.925 0C5.349 0 3.669 1.422 3.669 3.984v2.258H.805v2.961h2.863v7.16h3.516v-7.16zm0 0"></path>
  </symbol>

  <symbol xmlns="http://www.w3.org/2000/svg" viewBox="0 0 20 16" id="google">
    <path d="M12.063 7.14c.058.305.101.606.101 1 0 3.43-2.3 5.86-5.766 5.86a6 6 0 110-12c1.622 0 2.973.59 4.02 1.57L8.789 5.137C8.348 4.71 7.57 4.21 6.4 4.21 4.354 4.21 2.683 5.906 2.683 8c0 2.094 1.671 3.79 3.714 3.79 2.375 0 3.27-1.712 3.407-2.587H6.398V7.141zm5.796.2V5.602h-1.75V7.34h-1.742v1.75h1.742v1.742h1.75V9.09h1.743V7.34zm0 0"></path>
  </symbol>

  <symbol xmlns="http://www.w3.org/2000/svg" viewBox="0 0 19.994 20.002" id="heart">
    <path d="M19.753 4.597A6.689 6.689 0 0015.58.226c-1.7-.595-3.747 0-5.578 1.611C8.171.268 6.127-.285 4.424.268A6.89 6.89 0 00.251 4.639c-.468 1.57-.511 4.117 1.959 7.215 1.107 1.4 2.81 3.4 4.216 4.965 2.683 3.014 3.109 3.183 3.492 3.183h.17c.383 0 .766-.168 3.449-3.224a229.59 229.59 0 004.216-4.966c2.469-3.098 2.469-5.645 2-7.215zm-3.279 6.2c-1.959 2.462-5.323 6.324-6.472 7.385-1.15-1.061-4.514-4.924-6.473-7.385-1.618-1.994-2.214-3.947-1.7-5.687a4.993 4.993 0 013.109-3.225c1.235-.467 2.9.169 4.429 1.655a.846.846 0 001.064.126.417.417 0 00.213-.169c1.533-1.443 3.194-2.079 4.429-1.655a5.175 5.175 0 013.102 3.266c.514 1.7-.082 3.69-1.7 5.684z" ></path>
  </symbol>

  <symbol xmlns="http://www.w3.org/2000/svg" viewBox="0 0 13 14" id="linkedin">
    <path d="M2.91 12.25H.215V4.07H2.91zM1.562 2.957C.7 2.957 0 2.281 0 1.473 0 .66.7 0 1.563 0 2.421 0 3.12.66 3.12 1.473c0 .808-.7 1.484-1.558 1.484zm11.434 9.293H10.31V8.27c0-.95-.02-2.168-1.403-2.168-1.402 0-1.617 1.03-1.617 2.097v4.051H4.598V4.07h2.586v1.117h.039c.359-.644 1.238-1.32 2.547-1.32 2.73 0 3.23 1.692 3.23 3.89v4.493zm0 0"></path>
  </symbol>

  <symbol xmlns="http://www.w3.org/2000/svg" viewBox="0 0 33.001 20" id="master">
    <path d="M33 10.001a9.9 9.9 0 11-19.8 0 9.9 9.9 0 1119.8 0z" fill="#ffb600"></path>
    <path d="M23.1 0A9.976 9.976 0 0133 10a9.9 9.9 0 11-19.8 0" fill="#f7981d"></path>
    <path d="M23.1 0A9.976 9.976 0 0133 10a9.943 9.943 0 01-9.9 10" fill="#ff8500"></path>
    <path d="M9.793 0a10 10 0 106.757 17.408 9.45 9.45 0 001-1.058h-2.043a12.09 12.09 0 01-.733-1h3.51a6.859 6.859 0 00.576-1.058h-4.667a6.371 6.371 0 01-.419-1.058h5.448a10.6 10.6 0 00.524-3.175 13.849 13.849 0 00-.209-2.116h-6.076a7.81 7.81 0 01.262-1.058h5.447a6.291 6.291 0 00-.419-1.058h-4.608a10.642 10.642 0 01.576-1.058h3.51a5.027 5.027 0 00-.786-1.058h-1.938a9.01 9.01 0 01.995-1A9.611 9.611 0 009.848.118c0-.118 0-.118-.055-.118z" fill="#ff5050"></path>
    <path d="M0 10.001a9.881 9.881 0 0016.552 7.408 9.45 9.45 0 001-1.058h-2.043a12.09 12.09 0 01-.733-1h3.51a6.859 6.859 0 00.576-1.058h-4.669a6.371 6.371 0 01-.419-1.058h5.448a10.6 10.6 0 00.524-3.175 13.849 13.849 0 00-.209-2.116h-6.076a7.81 7.81 0 01.262-1.058h5.447a6.291 6.291 0 00-.419-1.058h-4.608a10.642 10.642 0 01.576-1.058h3.51a5.027 5.027 0 00-.786-1.058h-1.938a9.01 9.01 0 01.995-1A9.611 9.611 0 009.848.119h-.055" fill="#e52836"></path>
      <path d="M9.9 20.001a9.959 9.959 0 006.652-2.593 9.45 9.45 0 001-1.058h-2.043a12.09 12.09 0 01-.733-1h3.51a6.859 6.859 0 00.576-1.058h-4.669a6.371 6.371 0 01-.419-1.058h5.448a10.6 10.6 0 00.524-3.175 13.849 13.849 0 00-.209-2.116h-6.076a7.81 7.81 0 01.262-1.058h5.447a6.291 6.291 0 00-.419-1.058h-4.608a10.642 10.642 0 01.576-1.058h3.51a5.027 5.027 0 00-.786-1.058h-1.938a9.01 9.01 0 01.995-1A9.611 9.611 0 009.848.118h-.055" fill="#cb2026"></path>
    <path d="M13.41 12.54l.157-.9a2.244 2.244 0 01-.262.053c-.366 0-.419-.211-.366-.317l.314-1.852h.576l.157-1.006h-.524l.1-.635h-1.048s-.628 3.492-.628 3.916a.79.79 0 00.838.9 1.591 1.591 0 00.686-.159zm.366-1.693a1.674 1.674 0 001.833 1.852 2.7 2.7 0 001.1-.159l.21-1a3.114 3.114 0 01-1.1.265c-1.153 0-.943-.847-.943-.847h2.148a6.915 6.915 0 00.157-.952 1.427 1.427 0 00-1.518-1.534c-1.101-.112-1.887 1.052-1.887 2.375zm1.833-1.534c.576 0 .471.688.471.74h-1.152c.001-.052.105-.74.681-.74zm6.653 3.227l.209-1.164a2.552 2.552 0 01-.891.265c-.733 0-1.048-.582-1.048-1.217 0-1.27.629-1.958 1.362-1.958a1.737 1.737 0 01.943.317l.157-1.111a3.649 3.649 0 00-1.2-.265c-1.2 0-2.41 1.058-2.41 3.069 0 1.323.628 2.222 1.885 2.222a4.661 4.661 0 00.993-.158zM7.647 8.36a3.668 3.668 0 00-1.257.212l-.157.9a3.065 3.065 0 011.153-.212c.366 0 .681.053.681.371 0 .211-.052.264-.052.264h-.471c-.891 0-1.886.371-1.886 1.588 0 .952.628 1.164 1 1.164a1.567 1.567 0 001.1-.476l-.052.423h.943l.419-2.91A1.245 1.245 0 007.647 8.36zm.21 2.381c0 .159-.1 1-.733 1a.411.411 0 01-.419-.423c0-.265.157-.636.943-.636a.813.813 0 00.209.059zm2.2 1.906a1.345 1.345 0 001.571-1.376c0-1.322-1.257-1.058-1.257-1.587 0-.265.209-.37.576-.37.157 0 .733.053.733.053l.157-.952a3.939 3.939 0 00-1-.106c-.786 0-1.571.317-1.571 1.376 0 1.217 1.309 1.111 1.309 1.587 0 .317-.366.371-.628.371a3.4 3.4 0 01-.943-.159l-.157.952c.057.104.32.211 1.21.211zm20.9-5.133l-.209 1.428a1.451 1.451 0 00-1-.529c-.943 0-1.781 1.164-1.781 2.539 0 .847.419 1.746 1.309 1.746a1.4 1.4 0 001-.423l-.053.37h1.048l.786-5.079zm-.471 2.8c0 .582-.261 1.323-.838 1.323-.367 0-.576-.317-.576-.847 0-.846.366-1.376.838-1.376.366.004.576.269.576.904zM1.938 12.593l.629-3.81.1 3.81H3.4l1.361-3.81-.576 3.81h1.1l.838-5.08H4.395l-1.048 3.122-.052-3.122H1.776l-.838 5.08zm16.238 0c.314-1.747.366-3.175 1.1-2.91a4.215 4.215 0 01.366-1.217h-.209c-.471 0-.838.635-.838.635l.1-.582H17.7l-.681 4.127h1.153zm6.495-4.233a3.673 3.673 0 00-1.257.212l-.157.9a3.065 3.065 0 011.153-.212c.366 0 .681.053.681.371 0 .211-.052.264-.052.264h-.471c-.891 0-1.886.371-1.886 1.588 0 .952.629 1.164 1 1.164a1.567 1.567 0 001.1-.476l-.052.423h.943l.419-2.91a1.228 1.228 0 00-1.421-1.324zm.262 2.381c0 .159-.1 1-.733 1a.411.411 0 01-.419-.423c0-.265.158-.636.943-.636.157.059.157.059.209.059zm2.043 1.852c.314-1.747.367-3.175 1.1-2.91a4.186 4.186 0 01.367-1.217h-.209c-.472 0-.838.635-.838.635l.1-.582h-1l-.681 4.127h1.152z" fill="#fff"></path>
    <path d="M11.786 11.8a.79.79 0 00.838.9 1.971 1.971 0 00.786-.159l.157-.9a2.244 2.244 0 01-.262.053c-.366 0-.419-.211-.366-.317l.314-1.852h.576l.157-1.006h-.524l.1-.635m.738 2.963c0 1.482.471 1.852 1.309 1.852a2.7 2.7 0 001.1-.159l.21-1a3.114 3.114 0 01-1.1.265c-1.153 0-.943-.847-.943-.847h2.148a6.915 6.915 0 00.157-.952 1.427 1.427 0 00-1.518-1.534C14.562 8.36 14.3 9.524 14.3 10.847zm1.309-1.534c.576 0 .681.688.681.74h-1.362c.001-.052.105-.74.681-.74zm6.653 3.227l.209-1.164a2.552 2.552 0 01-.891.265c-.733 0-1.048-.582-1.048-1.217 0-1.27.629-1.958 1.362-1.958a1.737 1.737 0 01.943.317l.157-1.111a3.649 3.649 0 00-1.2-.265c-1.2 0-1.886 1.058-1.886 3.069 0 1.323.1 2.222 1.362 2.222a4.661 4.661 0 00.992-.158zM6.233 9.524a3.073 3.073 0 011.153-.211c.366 0 .681.053.681.37 0 .211-.052.265-.052.265h-.471c-.891 0-1.886.37-1.886 1.587 0 .952.628 1.164 1 1.164a1.566 1.566 0 001.1-.476l-.052.423h.943l.419-2.91c0-1.217-1.047-1.27-1.466-1.27m.786 2.275a1.719 1.719 0 01-1.257 1 .411.411 0 01-.419-.423c0-.265.157-.636.943-.636a4.2 4.2 0 00.726.059zm.516 1.799a4.389 4.389 0 001.2.106 1.346 1.346 0 001.572-1.376c0-1.322-1.258-1.058-1.258-1.587 0-.265.21-.37.576-.37.157 0 .733.053.733.053l.157-.952a3.933 3.933 0 00-1-.106c-.786 0-1.047.317-1.047 1.376 0 1.217.786 1.111.786 1.587 0 .317-.367.371-.628.371m20.753-2.695a1.451 1.451 0 00-1-.529c-.943 0-1.257 1.164-1.257 2.539 0 .847-.1 1.746.786 1.746a1.4 1.4 0 001-.423l-.052.37h1.047l.786-5.079m-1.361 2.751c0 .582-.472 1.323-1.048 1.323-.367 0-.576-.317-.576-.847 0-.846.366-1.376.838-1.376a.805.805 0 01.782.896zM1.938 12.593l.629-3.81.1 3.81H3.4l1.361-3.81-.576 3.81h1.1l.838-5.08H4.814l-1.467 3.122-.052-3.122h-.576l-1.781 5.08zm15.138 0h1.1c.314-1.747.366-3.175 1.1-2.91a4.215 4.215 0 01.366-1.217h-.209c-.471 0-.838.635-.838.635l.1-.582m4.562 1.005a3.073 3.073 0 011.153-.211c.366 0 .681.053.681.37 0 .211-.052.265-.052.265h-.471c-.891 0-1.886.37-1.886 1.587 0 .952.629 1.164 1 1.164a1.567 1.567 0 001.1-.476l-.052.423h.943l.419-2.91c0-1.217-1.048-1.27-1.467-1.27m.786 2.275a1.719 1.719 0 01-1.257 1 .411.411 0 01-.419-.423c0-.265.157-.636.943-.636a4.529 4.529 0 00.727.059zm.465 1.852h1.1c.314-1.747.367-3.175 1.1-2.91a4.186 4.186 0 01.367-1.217h-.209c-.472 0-.838.635-.838.635l.1-.582" fill="#dce5e5"></path>
  </symbol>

  <symbol xmlns="http://www.w3.org/2000/svg" viewBox="0 0 75 20" id="paypal">
    <path d="M57.977 5.218h-4.048c-.238 0-.477.247-.595.5L51.666 16.65c0 .249.12.372.358.372h2.143c.238 0 .357-.124.357-.372l.477-3.106a.552.552 0 01.595-.5h1.31q4.107 0 4.643-4.1a3.369 3.369 0 00-.476-2.733 4.665 4.665 0 00-3.095-.993m.477 4.1c-.238 1.49-1.31 1.49-2.381 1.49h-.715l.477-2.857c0-.124.118-.249.357-.249h.238c.715 0 1.428 0 1.786.5.238.125.238.5.238 1.118" fill="#139ad6"></path>
    <path d="M28.81 5.218h-4.047c-.238 0-.477.247-.595.5L22.5 16.65c0 .249.12.372.358.372h1.9c.238 0 .477-.247.595-.5l.477-2.982a.552.552 0 01.595-.5h1.31q4.107 0 4.643-4.1a3.369 3.369 0 00-.477-2.733 4.449 4.449 0 00-3.095-.993m.477 4.1c-.238 1.49-1.31 1.49-2.381 1.49h-.595l.475-2.857c0-.124.12-.249.358-.249h.238c.713 0 1.428 0 1.785.5a1.379 1.379 0 01.12 1.118m11.789-.123h-1.9c-.118 0-.357.124-.357.249l-.12.621-.118-.249a2.739 2.739 0 00-2.261-.869 4.648 4.648 0 00-4.406 4.1 3.821 3.821 0 00.715 3.106 2.933 2.933 0 002.5.994 3.736 3.736 0 002.738-1.118l-.118.621c0 .249.118.372.357.372h1.781c.238 0 .477-.247.595-.5l1.071-6.957c-.118-.124-.357-.372-.477-.372m-2.738 3.975a2.333 2.333 0 01-2.261 1.988 1.86 1.86 0 01-1.31-.5 2.736 2.736 0 01-.357-1.49 2.214 2.214 0 012.142-1.987 2.117 2.117 0 011.31.5 2.229 2.229 0 01.477 1.492" fill="#263b80"></path>
    <path d="M70.12 9.193h-1.9c-.12 0-.358.124-.358.249l-.118.621-.118-.249a2.74 2.74 0 00-2.263-.869 4.646 4.646 0 00-4.4 4.1 3.821 3.821 0 00.713 3.106 2.938 2.938 0 002.5.994 3.74 3.74 0 002.738-1.118l-.12.621c0 .249.12.372.358.372h1.785c.238 0 .477-.247.6-.5l1.071-6.957c-.12-.124-.238-.372-.477-.372m-2.738 3.975a2.334 2.334 0 01-2.263 1.988 1.86 1.86 0 01-1.31-.5 2.748 2.748 0 01-.357-1.49 2.216 2.216 0 012.143-1.987 2.121 2.121 0 011.31.5 1.465 1.465 0 01.477 1.492" fill="#139ad6"></path>
    <path d="M51.43 9.193h-2.024a.61.61 0 00-.477.249l-2.618 4.224L45.12 9.69a.549.549 0 00-.595-.372h-1.9c-.238 0-.357.249-.357.5l2.143 6.583-2.028 2.978c-.118.249 0 .621.238.621h1.9a.61.61 0 00.477-.249l6.547-9.814c.357-.372.118-.744-.118-.744" fill="#263b80"></path>
    <path d="M72.383 5.59l-1.666 11.181c0 .247.118.372.357.372h1.666c.238 0 .477-.249.6-.5l1.666-10.932c0-.249-.12-.372-.357-.372h-1.906c-.118-.124-.237 0-.357.249" fill="#139ad6"></path>
    <path d="M13.691 1.49C12.858.497 11.31 0 9.167 0H3.215a1.033 1.033 0 00-.833.746L.001 17.018a.562.562 0 00.477.622h3.691l.952-6.088v.249a1.037 1.037 0 01.833-.746H7.74c3.453 0 6.071-1.49 6.9-5.59v-.372a4.468 4.468 0 00-.952-3.6" fill="#263b80"></path>
    <path d="M14.524 5.093v.372c-.833 4.224-3.453 5.59-6.905 5.59H5.834a1.034 1.034 0 00-.833.746L3.81 19.379a.447.447 0 00.477.5h3.096a.676.676 0 00.715-.622v-.124l.595-3.851v-.249a.677.677 0 01.715-.621h.477c2.976 0 5.357-1.242 5.952-4.968a4.736 4.736 0 00-.595-3.728 1.241 1.241 0 00-.715-.621" fill="#139ad6"></path>
    <path d="M13.691 4.721c-.12 0-.238-.125-.357-.125a.429.429 0 01-.358-.124 6 6 0 00-1.548-.125H6.783a.423.423 0 00-.357.125.686.686 0 00-.357.621l-.953 6.46v.249a1.037 1.037 0 01.833-.746h1.786c3.453 0 6.071-1.49 6.9-5.59a.468.468 0 01.12-.372c-.238-.124-.358-.249-.6-.249-.358-.124-.358-.124-.477-.124" fill="#232c65"></path>
  </symbol>


  <symbol xmlns="http://www.w3.org/2000/svg" viewBox="0 0 15 15" id="pinterest">
     <path d="M15 7.5c0 4.016-3.355 7.266-7.5 7.266-.773 0-1.52-.114-2.219-.325.305-.484.762-1.277.93-1.906.09-.34.465-1.726.465-1.726.246.449.96.832 1.719.832 2.261 0 3.894-2.016 3.894-4.52 0-2.398-2.023-4.195-4.625-4.195-3.238 0-4.957 2.105-4.957 4.398 0 1.067.586 2.395 1.52 2.817.144.062.218.035.253-.098l.207-.824c.02-.074.008-.137-.05-.207-.305-.367-.555-1.035-.555-1.66 0-1.602 1.254-3.153 3.387-3.153 1.843 0 3.133 1.219 3.133 2.957 0 1.965-1.024 3.328-2.36 3.328-.734 0-1.285-.59-1.11-1.312.216-.863.622-1.797.622-2.418 0-.559-.309-1.024-.95-1.024-.753 0-1.359.754-1.359 1.762 0 .645.227 1.078.227 1.078s-.742 3.043-.879 3.61c-.152.629-.09 1.511-.027 2.086C1.976 13.21 0 10.578 0 7.5 0 3.484 3.355.234 7.5.234S15 3.484 15 7.5zm0 0"></path>
  </symbol>

  <symbol xmlns="http://www.w3.org/2000/svg" viewBox="0 0 20 20" id="search">
      <path d="M19.878 18.703l-5.81-5.81a7.93 7.93 0 10-1.178 1.178l5.81 5.81a.416.416 0 00.589 0l.589-.589a.416.416 0 000-.589zM7.917 14.17a6.25 6.25 0 116.25-6.25 6.257 6.257 0 01-6.25 6.246z" ></path>
  </symbol>

  <symbol xmlns="http://www.w3.org/2000/svg" viewBox="0 0 14 14" id="twitter">
    <path d="M12.563 4.148c.007.125.007.25.007.375 0 3.793-2.886 8.16-8.164 8.16A8.113 8.113 0 010 11.399c.23.028.453.036.691.036a5.736 5.736 0 003.563-1.227 2.87 2.87 0 01-2.68-1.988 4.1 4.1 0 00.54.043c.257 0 .515-.035.757-.098a2.868 2.868 0 01-2.3-2.816v-.035c.378.214.824.347 1.296.363a2.868 2.868 0 01-.89-3.836 8.154 8.154 0 005.918 3 3.043 3.043 0 01-.07-.656A2.864 2.864 0 019.69 1.316a2.85 2.85 0 012.098.907 5.677 5.677 0 001.82-.696 2.871 2.871 0 01-1.261 1.582A5.744 5.744 0 0014 2.664a6.176 6.176 0 01-1.438 1.484zm0 0"></path>
  </symbol>


  <symbol xmlns="http://www.w3.org/2000/svg" viewBox="0 0 20 20" id="user">
    <path d="M17.071 12.929a9.957 9.957 0 00-3.8-2.383 5.781 5.781 0 10-6.542 0A10.016 10.016 0 000 20.001h1.563a8.438 8.438 0 0116.875 0H20a9.935 9.935 0 00-2.929-7.072zM5.781 5.782A4.219 4.219 0 1110 10.001a4.223 4.223 0 01-4.219-4.22z" ></path>
  </symbol>

  <symbol xmlns="http://www.w3.org/2000/svg" viewBox="0 0 28 20" id="visa">
    <path d="M28 18.286A1.685 1.685 0 0126.345 20H1.655A1.685 1.685 0 010 18.286V1.714A1.685 1.685 0 011.655 0h24.69A1.685 1.685 0 0128 1.714v16.571z" fill="#fff"></path>
    <path d="M6.215 10.115l-.657-3.267a.787.787 0 00-.848-.6H1.696l-.027.149a6.253 6.253 0 014.546 3.718z" fill="#f79f1a"></path>
    <path d="M13.199 6.312h-1.948l-1.216 7.393h1.944zm-5.797 7.386l3.063-7.381H8.404L6.498 11.36l-.2-.761a7.81 7.81 0 00-2.694-3.064l1.742 6.166zm11.352-2.409c.007-.839-.513-1.48-1.635-2.008-.681-.342-1.1-.57-1.092-.916 0-.306.352-.636 1.114-.636a3.484 3.484 0 011.456.284l.176.083.264-1.6a4.895 4.895 0 00-1.744-.309c-1.923 0-3.276 1-3.288 2.439-.012 1.063.967 1.655 1.705 2.009.757.361 1.011.592 1.006.916 0 .5-.6.721-1.163.721a3.959 3.959 0 01-1.833-.388l-.249-.118-.274 1.657a5.938 5.938 0 002.167.393c2.046-.002 3.376-.991 3.39-2.527zm2.313 1.308h2.491c.059.257.237 1.108.237 1.108h1.8l-1.576-7.388h-1.5a.965.965 0 00-1.019.612l-2.89 6.776h2.045l.412-1.108zm1.334-3.58c-.009.02.162-.428.259-.706l.132.637.45 2.136h-1.615c.161-.425.774-2.067.774-2.067zM26.345 0H1.655A1.685 1.685 0 000 1.714v1.779h28V1.714A1.685 1.685 0 0026.345 0z" fill="#059bbf"></path>
    <path d="M26.345 20H1.655A1.685 1.685 0 010 18.286v-1.779h28v1.779A1.685 1.685 0 0126.345 20z" fill="#f79f1a"></path>
    <path d="M1.177 18.286V1.714A1.686 1.686 0 012.832 0H1.655A1.685 1.685 0 000 1.714v16.571a1.685 1.685 0 001.655 1.714h1.177a1.686 1.686 0 01-1.655-1.713z" fill="#202121" opacity=".15"></path>
  </symbol>

  <!-- info icon -->
  <symbol xmlns="http://www.w3.org/2000/svg" viewBox="0 0 60 60" id="info_daysreturn">
    <path fill="#34c3ff" d="M0 0h60v60H0z"></path>
    <path d="M19 30.5A12.444 12.444 0 0131.358 18a12.275 12.275 0 019.07 4.018l.121-1.685L42 20.44l-.308 4.281-4.234-.312.106-1.467 1.85.137a10.828 10.828 0 00-8.057-3.606 11.029 11.029 0 109.058 17.162l1.207.82A12.315 12.315 0 0131.358 43 12.443 12.443 0 0119 30.5zm19.289 1.624a1.326 1.326 0 00.335-.077.92.92 0 00.35-.244.215.215 0 00.055-.128.365.365 0 00-.044-.161l-1.057-2.471h1.156l.356 1.181c.043.155.1.376.137.509h.022c.039-.144.082-.365.115-.509l.268-1.181h1.129l-.57 1.557a4.328 4.328 0 01-1.09 2.018 1.691 1.691 0 01-.97.382zm-3.347-1.147c0-.732.647-1.069 1.666-1.069v-.017c0-.1-.066-.221-.472-.221a1.86 1.86 0 00-.816.216l-.18-.653a2.519 2.519 0 011.177-.256c.926 0 1.32.472 1.32 1.2v.914a3.917 3.917 0 00.044.676h-.932l-.055-.232h-.022a1.011 1.011 0 01-.789.3.879.879 0 01-.941-.86zm1.025-.1c0 .156.1.245.3.245a.4.4 0 00.367-.283.684.684 0 00.011-.15v-.149c-.459-.002-.678.114-.678.335zm-8.283.958c-1.068 0-1.5-.881-1.5-1.867s.428-1.867 1.5-1.867 1.5.886 1.5 1.867-.427 1.867-1.5 1.867zm-.465-1.867c0 .765.186 1.114.471 1.114h.005c.28 0 .466-.349.466-1.114s-.186-1.107-.472-1.107-.47.339-.47 1.105zm-4.366 1.58l.213-.77a2.4 2.4 0 00.948.244c.356 0 .608-.106.608-.366s-.3-.41-.625-.41h-.46v-.737h.444c.24 0 .553-.077.553-.31 0-.172-.175-.288-.509-.288a2.036 2.036 0 00-.859.233l-.22-.743a2.727 2.727 0 011.31-.3c.822 0 1.331.388 1.331.925a.858.858 0 01-.7.842v.011a.872.872 0 01.816.842c0 .7-.657 1.113-1.611 1.113a2.46 2.46 0 01-1.239-.287zm8.024.2v-3.662a8.873 8.873 0 011.3-.084 2.878 2.878 0 011.66.377 1.58 1.58 0 01.734 1.413 1.812 1.812 0 01-.68 1.524 3.182 3.182 0 01-1.917.5 7.064 7.064 0 01-1.096-.07zm1.036-2.926V31a1.679 1.679 0 00.241.011c.756.012 1.309-.348 1.309-1.164 0-.742-.52-1.052-1.188-1.052a1.927 1.927 0 00-.361.025z" fill="#fff"></path>
  </symbol>
  <symbol xmlns="http://www.w3.org/2000/svg" viewBox="0 0 60 60" id="info_shipping">
    <path fill="#ffb534" d="M0 0h60v60H0z"></path>
    <path d="M39.393 39.083v-.041H25.278v.041a3.967 3.967 0 01-7.934 0v-.041h-3.383a1.289 1.289 0 01-1.294-1.28V36.4h-2.046a.619.619 0 110-1.238h6.013a.619.619 0 110 1.238H13.92v1.362a.041.041 0 00.041.041h3.6a3.981 3.981 0 017.5 0h13v-4.662a.626.626 0 011.253 0v4.662h.3a3.982 3.982 0 017.5 0h1.638V35.08h-.71a1.953 1.953 0 01-1.963-1.939V31.82a.623.623 0 01.626-.618h1.948a2.048 2.048 0 00-1.946-1.4h-7.393v.7a.626.626 0 01-1.253 0V19.279a.041.041 0 00-.041-.041H13.963a.042.042 0 00-.041.041V30.5a.626.626 0 01-1.253 0V19.278a1.288 1.288 0 011.294-1.279h24.052a1.288 1.288 0 011.294 1.279v1.362h4.719a2.618 2.618 0 012.631 2.6v.66a.622.622 0 01-.5.606l1.036 4.093a3.278 3.278 0 012.8 3.222v6.6a.624.624 0 01-.626.619h-2.048v.041a3.967 3.967 0 01-7.934 0zm1.253 0A2.714 2.714 0 1043.36 36.4a2.7 2.7 0 00-2.714 2.683zm-22.047 0a2.715 2.715 0 102.714-2.683 2.7 2.7 0 00-2.713 2.683zm28.728-5.942a.707.707 0 00.71.7h.71v-1.4h-1.42zm-8.017-4.579h6.59l-1.023-4.045h-5.566zm0-5.282h6.1v-.04a1.372 1.372 0 00-1.378-1.363h-4.719zm2.761 15.8a1.29 1.29 0 111.29 1.281 1.285 1.285 0 01-1.291-1.281zm-22.05 0a1.29 1.29 0 111.29 1.281 1.285 1.285 0 01-1.291-1.281zm6.629-2.68a.62.62 0 110-1.239h9.37a.62.62 0 110 1.239zm-14.691-2.64a.619.619 0 110-1.238h8.017a.619.619 0 110 1.238zm12.919-2.823l-3.341-3.3a.614.614 0 010-.876.631.631 0 01.886 0l2.9 2.864 5.57-5.5a.631.631 0 01.886 0 .613.613 0 010 .875l-6.013 5.941a.63.63 0 01-.886 0z" fill="#fff"></path>
  </symbol>
  <symbol xmlns="http://www.w3.org/2000/svg" viewBox="0 0 60 60" id="info_support">
    <path fill="#fe3e57" d="M0 0h60v60H0z"></path>
    <path d="M23.126 42.859l-5.965-5.547a.49.49 0 01-.015-.707l3.527-3.576a.523.523 0 01.366-.153.519.519 0 01.357.141l.726.689a7.239 7.239 0 011.322-1.387 5.541 5.541 0 015.077-1.049 8.5 8.5 0 002.212.287h4.047a1.894 1.894 0 011.464.639 1.869 1.869 0 01.2.272l2.891-2.793a2.111 2.111 0 011.6-.594 2.391 2.391 0 011.453.595 1.715 1.715 0 01.111 2.532l-4.148 4.766a3.333 3.333 0 01-.652.579l-.017.011a4.708 4.708 0 01-2.525.635H29a11.143 11.143 0 00-1.274.072l-.7.076.3.288a.494.494 0 01.01.71l-3.494 3.5a.521.521 0 01-.719.013zm-4.887-5.923l5.226 4.86 2.786-2.79-5.2-4.925zm5.855-3.843a6.267 6.267 0 00-1.225 1.316l3.2 3.037 1.531-.168a12.521 12.521 0 011.39-.078h6.156a3.711 3.711 0 001.966-.472 2.437 2.437 0 00.449-.4l4.148-4.766a.741.741 0 00-.024-1.151 1.219 1.219 0 00-1.635-.027l-3.329 3.217a2.024 2.024 0 01-.481 1.272 1.919 1.919 0 01-1.477.638h-3.522a.5.5 0 110-1h3.522a.878.878 0 00.7-.286 1.064 1.064 0 00.239-.693.91.91 0 00-.921-.977h-4.047a9.54 9.54 0 01-2.485-.323 5.023 5.023 0 00-1.312-.182 4.481 4.481 0 00-2.842 1.043zm4.566 2.034l-.005-.021a.5.5 0 01.382-.6.512.512 0 01.615.372v.021a.5.5 0 01-.382.6.473.473 0 01-.117.014.509.509 0 01-.492-.386zm4.671-6.594a1.256 1.256 0 00-1.453 0H26.9a1.258 1.258 0 00-1.453 0h-4.983a1.225 1.225 0 01-1.238-1.209v-2.268a2.613 2.613 0 011.458-2.342 2.824 2.824 0 01-.679-1.836 2.951 2.951 0 015.9 0 2.825 2.825 0 01-.679 1.836.962.962 0 001.894 0 2.825 2.825 0 01-.679-1.836 2.951 2.951 0 015.9 0 2.824 2.824 0 01-.679 1.836.962.962 0 001.895 0 2.825 2.825 0 01-.679-1.836 2.951 2.951 0 015.9 0 2.825 2.825 0 01-.679 1.836 2.612 2.612 0 011.458 2.341v2.269a1.225 1.225 0 01-1.238 1.209zm-.215-3.478v2.269a.213.213 0 00.215.211h4.983a.213.213 0 00.215-.211v-2.269a1.634 1.634 0 00-1.378-1.607 3 3 0 01-2.657 0 1.635 1.635 0 00-1.378 1.607zm-6.436 0v2.269a.213.213 0 00.215.211h4.983a.214.214 0 00.215-.211v-2.269a1.635 1.635 0 00-1.379-1.607 3 3 0 01-2.657 0 1.635 1.635 0 00-1.376 1.607zm-6.437 0v2.269a.213.213 0 00.215.211h4.983a.213.213 0 00.215-.211v-2.269a1.634 1.634 0 00-1.378-1.607 3 3 0 01-2.657 0 1.635 1.635 0 00-1.377 1.607zm13.653-4.177a1.927 1.927 0 101.927-1.881 1.907 1.907 0 00-1.923 1.881zm-6.437 0a1.927 1.927 0 101.927-1.881 1.907 1.907 0 00-1.926 1.881zm-6.437 0a1.928 1.928 0 101.928-1.881 1.908 1.908 0 00-1.927 1.881z" fill="#fff"></path>
  </symbol>


  <symbol xmlns="http://www.w3.org/2000/svg" viewBox="0 0 65 51.999" id="info-after">
    <path d="M61.5 50.27A1.75 1.75 0 1163.25 52a1.741 1.741 0 01-1.75-1.73zm-12.319 0A1.77 1.77 0 1150.95 52a1.75 1.75 0 01-1.77-1.73zm-12.271 0A1.75 1.75 0 1138.66 52a1.741 1.741 0 01-1.75-1.73zm-12.32 0A1.75 1.75 0 1126.34 52a1.741 1.741 0 01-1.75-1.73zm-12.309 0A1.77 1.77 0 1114.05 52a1.75 1.75 0 01-1.77-1.73zM0 50.27A1.75 1.75 0 111.751 52 1.741 1.741 0 010 50.27zm61.5-12.13a1.75 1.75 0 111.75 1.731 1.741 1.741 0 01-1.75-1.731zm-12.319 0a1.77 1.77 0 111.769 1.731 1.75 1.75 0 01-1.77-1.731zm-12.271 0a1.75 1.75 0 111.75 1.731 1.741 1.741 0 01-1.75-1.731zm-12.32 0a1.75 1.75 0 111.75 1.731 1.741 1.741 0 01-1.75-1.731zm-12.309 0a1.77 1.77 0 111.769 1.731 1.75 1.75 0 01-1.77-1.731zM0 38.14a1.75 1.75 0 111.751 1.731A1.741 1.741 0 010 38.14zM61.5 26a1.75 1.75 0 111.75 1.72A1.736 1.736 0 0161.5 26zm-12.319 0a1.771 1.771 0 111.769 1.72A1.745 1.745 0 0149.18 26zM36.91 26a1.75 1.75 0 111.75 1.72A1.736 1.736 0 0136.91 26zm-12.32 0a1.75 1.75 0 111.75 1.72A1.736 1.736 0 0124.59 26zm-12.309 0a1.771 1.771 0 111.769 1.72A1.745 1.745 0 0112.28 26zM0 26a1.75 1.75 0 111.751 1.72A1.736 1.736 0 010 26zm61.5-12.14a1.75 1.75 0 111.75 1.73 1.741 1.741 0 01-1.75-1.73zm-12.319 0a1.77 1.77 0 111.769 1.73 1.75 1.75 0 01-1.77-1.73zm-12.271 0a1.75 1.75 0 111.75 1.73 1.741 1.741 0 01-1.75-1.73zm-12.32 0a1.75 1.75 0 111.75 1.73 1.741 1.741 0 01-1.75-1.73zm-12.309 0a1.77 1.77 0 111.769 1.73 1.75 1.75 0 01-1.77-1.73zM0 13.86a1.75 1.75 0 111.751 1.73A1.741 1.741 0 010 13.86zM61.5 1.73a1.75 1.75 0 111.75 1.73 1.74 1.74 0 01-1.75-1.73zm-12.319 0a1.77 1.77 0 111.769 1.73 1.749 1.749 0 01-1.77-1.73zm-12.271 0a1.75 1.75 0 111.75 1.73 1.74 1.74 0 01-1.75-1.73zm-12.32 0a1.75 1.75 0 111.75 1.73 1.74 1.74 0 01-1.75-1.73zm-12.309 0a1.77 1.77 0 111.769 1.73 1.749 1.749 0 01-1.77-1.73zM0 1.73a1.75 1.75 0 111.751 1.73A1.74 1.74 0 010 1.73z" fill="#fe3e57"></path>
  </symbol>
  <symbol xmlns="http://www.w3.org/2000/svg" viewBox="0 0 119.994 121.003" id="info-before">
    <path d="M58.862 120.993a.592.592 0 01.022-1.184c1.348.025 2.719 0 4.067-.063a.584.584 0 01.616.562.591.591 0 01-.557.62c-1 .049-2.021.076-3.027.076q-.562-.001-1.121-.011zm-4.141-.22a63.219 63.219 0 01-4.116-.5.592.592 0 01.182-1.169c1.334.211 2.691.377 4.036.5a.592.592 0 01-.05 1.181.5.5 0 01-.052-.011zm11.767-.714a.592.592 0 01.514-.658 58.054 58.054 0 004.018-.625.592.592 0 01.22 1.163c-1.35.258-2.73.472-4.1.637a.616.616 0 01-.07 0 .589.589 0 01-.582-.516zm-19.954-.582a59.144 59.144 0 01-4.008-1.075.592.592 0 01-.392-.738.585.585 0 01.732-.394c1.291.394 2.613.749 3.929 1.053a.592.592 0 01-.13 1.168.6.6 0 01-.131-.013zm28.032-.881a.591.591 0 01.419-.722c1.3-.346 2.614-.743 3.893-1.181a.586.586 0 01.744.371.594.594 0 01-.367.751 57.22 57.22 0 01-3.973 1.2.561.561 0 01-.149.02.587.587 0 01-.567-.438zm-35.97-1.549a59.234 59.234 0 01-3.826-1.627.593.593 0 01-.285-.786.584.584 0 01.779-.288 61.53 61.53 0 003.75 1.6.591.591 0 11-.418 1.105zm43.764-1.027a.593.593 0 01.315-.774 58.93 58.93 0 003.69-1.71.585.585 0 01.788.263.6.6 0 01-.261.794c-1.23.624-2.5 1.211-3.765 1.745a.575.575 0 01-.227.047.587.587 0 01-.54-.364zm-51.293-2.491a61.82 61.82 0 01-3.563-2.145.6.6 0 01-.176-.818.585.585 0 01.812-.176 57.88 57.88 0 003.493 2.1.594.594 0 01.231.8.584.584 0 01-.8.232zm58.658-1.148a.6.6 0 01.205-.811 58.297 58.297 0 003.423-2.209.582.582 0 01.816.151.594.594 0 01-.149.823 60.654 60.654 0 01-3.491 2.254.585.585 0 01-.8-.208zm-65.631-3.383a60.428 60.428 0 01-3.236-2.618.6.6 0 01-.062-.834.584.584 0 01.828-.062 58.947 58.947 0 003.173 2.566.6.6 0 01.118.828.584.584 0 01-.821.121zm32.116-.364a.59.59 0 01-.54-.635.581.581 0 01.632-.544c1.215.1 2.453.144 3.678.144h.374a.592.592 0 010 1.183h-.382c-1.245 0-2.514-.05-3.759-.147zm7.664-.6a.591.591 0 01.529-.644c1.345-.128 2.7-.316 4.017-.559a.592.592 0 01.211 1.165 48.072 48.072 0 01-4.118.571h-.055a.589.589 0 01-.581-.532zm-11.79.093a46.935 46.935 0 01-4.067-.865.591.591 0 01.293-1.146c1.3.337 2.635.621 3.967.844a.592.592 0 01-.1 1.175.506.506 0 01-.09-.007zm44.437-.375a.6.6 0 01.094-.832 59.705 59.705 0 003.091-2.662.584.584 0 01.83.036.6.6 0 01-.036.836 60.327 60.327 0 01-3.154 2.716.583.583 0 01-.824-.094zm-24.557-1.1a.592.592 0 01.41-.727c1.3-.36 2.6-.781 3.859-1.254a.591.591 0 01.409 1.109 47.525 47.525 0 01-3.956 1.286.587.587 0 01-.722-.414zm-27.924-.608c-1.3-.464-2.6-.991-3.858-1.568a.593.593 0 01-.291-.783.584.584 0 01.778-.293 46.432 46.432 0 003.763 1.528.593.593 0 01-.2 1.15.572.572 0 01-.19-.035zm35.649-2.173a.593.593 0 01.279-.787 47.196 47.196 0 003.585-1.91.584.584 0 01.8.211.594.594 0 01-.211.809 48.982 48.982 0 01-3.674 1.958.583.583 0 01-.782-.282zm-61.88-.324c-.98-.977-1.939-2-2.848-3.038a.6.6 0 01.052-.835.584.584 0 01.828.052 59.993 59.993 0 002.794 2.98.594.594 0 010 .836.582.582 0 01-.83.005zm18.667-.97a48.87 48.87 0 01-3.53-2.218.6.6 0 01-.152-.823.585.585 0 01.816-.154c1.112.769 2.27 1.5 3.443 2.164a.593.593 0 01.222.806.583.583 0 01-.8.225zm66.155-.351a.6.6 0 01-.021-.838 58.203 58.203 0 002.7-3.065.583.583 0 01.825-.078.6.6 0 01.077.833 60.99 60.99 0 01-2.754 3.127.585.585 0 01-.83.022zm-15.81-2.444a.6.6 0 01.139-.825 45.947 45.947 0 003.2-2.506.583.583 0 01.827.069.6.6 0 01-.068.833 48.213 48.213 0 01-3.284 2.569.584.584 0 01-.818-.14zm-57.2-1.939a48.329 48.329 0 01-3.1-2.8.594.594 0 01-.009-.837.583.583 0 01.83-.01 46.517 46.517 0 003.021 2.728.6.6 0 01.081.833.584.584 0 01-.826.083zm-17.294-.562a64.259 64.259 0 01-2.408-3.4.6.6 0 01.165-.82.582.582 0 01.813.167 59.93 59.93 0 002.362 3.336.6.6 0 01-.109.83.585.585 0 01-.823-.11zm45.859-.462a36.051 36.051 0 01-4.148-.448.59.59 0 01-.483-.68.584.584 0 01.676-.487 34.531 34.531 0 004.013.433.592.592 0 01-.028 1.183zm3.548-.585a.59.59 0 01.548-.629 35.057 35.057 0 004.006-.5.591.591 0 01.211 1.164 35.81 35.81 0 01-4.141.515h-.039a.591.591 0 01-.584-.551zm46.2-.332a.594.594 0 01-.135-.825 60.227 60.227 0 002.258-3.412.585.585 0 01.808-.193.6.6 0 01.191.815 65.296 65.296 0 01-2.3 3.478.582.582 0 01-.819.136zm-57.965-.459a35.733 35.733 0 01-3.937-1.4.593.593 0 01-.313-.775.585.585 0 01.769-.317 34.417 34.417 0 003.806 1.358.594.594 0 01.4.734.587.587 0 01-.563.427.567.567 0 01-.163-.028zm19.854-.56a.592.592 0 01.389-.739 34.712 34.712 0 003.782-1.416.584.584 0 01.774.3.593.593 0 01-.3.779 35.956 35.956 0 01-3.913 1.465.594.594 0 01-.172.025.586.586 0 01-.561-.414zm23.324-.373a.6.6 0 010-.837 47.456 47.456 0 002.731-3.023.582.582 0 01.826-.076.593.593 0 01.075.832 48.119 48.119 0 01-2.8 3.1.583.583 0 01-.83 0zm-50.865-2.321a36.2 36.2 0 01-3.511-2.276.6.6 0 01-.129-.827.584.584 0 01.82-.13 35.135 35.135 0 003.4 2.2.6.6 0 01.223.807.585.585 0 01-.511.3.577.577 0 01-.292-.074zm-18.6-.2a48.852 48.852 0 01-2.574-3.29.6.6 0 01.133-.826.585.585 0 01.82.134 48.337 48.337 0 002.511 3.211.594.594 0 01-.062.833.583.583 0 01-.828-.062zm53.7-.3a.6.6 0 01.21-.81 34.959 34.959 0 003.359-2.255.584.584 0 01.823.117.6.6 0 01-.116.828 36.084 36.084 0 01-3.472 2.331.573.573 0 01-.3.082.584.584 0 01-.505-.294zM7.754 90.317a61.086 61.086 0 01-1.919-3.7.6.6 0 01.275-.79.584.584 0 01.783.278 59.37 59.37 0 001.882 3.631.6.6 0 01-.221.806.583.583 0 01-.8-.223zm104.57-1.415a.594.594 0 01-.247-.8 59.188 59.188 0 001.77-3.694.587.587 0 01.774-.3.594.594 0 01.3.781 60.72 60.72 0 01-1.805 3.768.587.587 0 01-.519.317.572.572 0 01-.274-.073zm-13.843-.679a.6.6 0 01-.146-.823c.77-1.114 1.5-2.275 2.173-3.453a.585.585 0 01.8-.219.6.6 0 01.216.808 48.173 48.173 0 01-2.228 3.541.582.582 0 01-.817.147zm-62.935-.979a36.655 36.655 0 01-2.9-3.025.594.594 0 01.062-.833.583.583 0 01.828.062 35.434 35.434 0 002.806 2.927.594.594 0 01.033.835.581.581 0 01-.829.034zm48.464-.416a.6.6 0 01.021-.837 35.322 35.322 0 002.761-2.97.582.582 0 01.826-.076.6.6 0 01.075.833 36.692 36.692 0 01-2.853 3.071.585.585 0 01-.83-.022zm-65.185-1.631a48.428 48.428 0 01-1.971-3.688.593.593 0 01.273-.79.585.585 0 01.784.274 48.133 48.133 0 001.923 3.6.594.594 0 01-.2.811.577.577 0 01-.3.084.588.588 0 01-.51-.291zM4.176 82.788a60.631 60.631 0 01-1.393-3.937.588.588 0 111.119-.359c.41 1.3.869 2.6 1.365 3.86a.593.593 0 01-.329.769.573.573 0 01-.216.042.586.586 0 01-.547-.376zm111.536-1.433a.592.592 0 01-.353-.757 59.905 59.905 0 001.243-3.9.587.587 0 111.129.322 58.689 58.689 0 01-1.269 3.982.586.586 0 01-.552.392.6.6 0 01-.199-.039zm-13.051-.254a.593.593 0 01-.285-.786 47.172 47.172 0 001.546-3.781.586.586 0 01.752-.355.593.593 0 01.352.758c-.471 1.311-1 2.615-1.585 3.877a.588.588 0 01-.533.342.571.571 0 01-.248-.055zm-72.552-.221a36.552 36.552 0 01-2.137-3.612.6.6 0 01.249-.8.584.584 0 01.791.252 35.776 35.776 0 002.068 3.495.594.594 0 01-.157.822.584.584 0 01-.815-.158zm59.255-.311a.6.6 0 01-.169-.819 35.406 35.406 0 002.013-3.53.584.584 0 01.788-.265.6.6 0 01.262.795 36.738 36.738 0 01-2.08 3.648.584.584 0 01-.814.171zm-74.156-2.907c-.49-1.3-.93-2.641-1.306-3.979a.587.587 0 111.129-.322c.367 1.306.8 2.612 1.274 3.881a.593.593 0 01-.34.763.565.565 0 01-.209.039.588.588 0 01-.549-.383zM1.664 74.824a60.57 60.57 0 01-.837-4.094.587.587 0 111.157-.2c.228 1.345.5 2.7.821 4.015a.592.592 0 01-.431.715.575.575 0 01-.139.016.588.588 0 01-.572-.453zm24.6-1.4a36.559 36.559 0 01-1.255-4.012.588.588 0 111.139-.29 35.262 35.262 0 001.212 3.887.593.593 0 01-.34.763.584.584 0 01-.757-.343zm91.763-.013a.592.592 0 01-.454-.7c.276-1.333.509-2.691.694-4.038a.582.582 0 01.661-.5.591.591 0 01.5.667 61.27 61.27 0 01-.708 4.118.587.587 0 01-.573.471.623.623 0 01-.121-.014zm-12.477-.058a.592.592 0 01-.417-.724c.346-1.308.637-2.651.869-3.992a.587.587 0 111.156.2 48.615 48.615 0 01-.891 4.093.588.588 0 01-.567.44.554.554 0 01-.151-.014zm-12.4-.121a.594.594 0 01-.352-.758 35.064 35.064 0 001.152-3.9.587.587 0 111.143.27 36.385 36.385 0 01-1.191 4.036.584.584 0 01-.752.355zM12.943 69.6a49.003 49.003 0 01-.6-4.145.587.587 0 111.168-.121c.138 1.355.335 2.716.586 4.045a.591.591 0 01-.466.692.669.669 0 01-.111.01.588.588 0 01-.576-.478zM.27 66.582a61.28 61.28 0 01-.271-4.171.587.587 0 111.174-.036c.041 1.359.13 2.735.265 4.09a.591.591 0 01-.526.648H.853a.589.589 0 01-.582-.527zm23.953-1.3a37.1 37.1 0 01-.3-4.194.59.59 0 01.578-.6h.009a.588.588 0 01.587.582 35.911 35.911 0 00.294 4.058.591.591 0 01-.5.664.567.567 0 01-.077 0 .589.589 0 01-.589-.509zm95-.055a.59.59 0 01-.545-.63 60.782 60.782 0 00.023-7.851.589.589 0 01.549-.627.581.581 0 01.622.553 61.788 61.788 0 01-.021 8.002.59.59 0 01-.586.551zm-12.169 0a.591.591 0 01-.535-.64 48.213 48.213 0 00.151-5.592.588.588 0 01.567-.61.578.578 0 01.606.573q.024.768.024 1.544c0 1.4-.059 2.805-.177 4.185a.589.589 0 01-.584.541.5.5 0 01-.048-.001zm-11.9-.005a.59.59 0 01-.517-.654 36.039 36.039 0 00.23-4.064q0-.572-.017-1.138a.587.587 0 111.173-.038q.019.586.018 1.175a37.358 37.358 0 01-.238 4.2.588.588 0 01-.582.524.568.568 0 01-.06-.006zM12.68 61.858a.59.59 0 01-.587-.582q-.005-.385-.006-.771c0-1.136.04-2.286.119-3.416a.587.587 0 111.171.082 48.047 48.047 0 00-.109 4.087.591.591 0 01-.578.6zM.571 58.848a.589.589 0 01-.564-.613 60.81 60.81 0 01.294-4.17.587.587 0 111.166.124 60.994 60.994 0 00-.288 4.09.588.588 0 01-.586.569zm24.04-1.313a.591.591 0 01-.526-.648 36.735 36.735 0 01.649-4.155.587.587 0 111.147.252 35.392 35.392 0 00-.628 4.019.59.59 0 01-.584.535zm69.883-2.226a35.556 35.556 0 00-.823-3.984.593.593 0 01.415-.725.586.586 0 01.719.417 36.513 36.513 0 01.85 4.12.591.591 0 01-.494.671.587.587 0 01-.667-.5zm11.875-.392a47.215 47.215 0 00-.651-4.035.588.588 0 111.15-.241c.279 1.358.5 2.75.666 4.136a.59.59 0 01-.514.657.614.614 0 01-.069 0 .589.589 0 01-.578-.515zm-93.2-1.319a.591.591 0 01-.488-.677 49.02 49.02 0 01.825-4.108.587.587 0 01.712-.432.594.594 0 01.428.717 45.968 45.968 0 00-.806 4.007.588.588 0 01-.579.5.651.651 0 01-.093-.005zm105.143-.928a58.232 58.232 0 00-.671-4.043.591.591 0 01.458-.7.585.585 0 01.691.463c.275 1.359.5 2.746.685 4.123a.59.59 0 01-.5.663.569.569 0 01-.077.005.588.588 0 01-.586-.509zM1.362 50.609a.591.591 0 01-.476-.686c.239-1.368.529-2.743.861-4.09a.583.583 0 01.711-.43.592.592 0 01.428.716 59.22 59.22 0 00-.845 4.01.587.587 0 01-.577.489.566.566 0 01-.102-.009zm24.869-1.182a.593.593 0 01-.365-.752 36.7 36.7 0 011.585-3.894.583.583 0 01.783-.277.593.593 0 01.275.789 35.351 35.351 0 00-1.534 3.767.583.583 0 01-.745.367zm66.17-1.964a35.315 35.315 0 00-1.712-3.684.594.594 0 01.238-.8.584.584 0 01.795.239 36.41 36.41 0 011.769 3.808.594.594 0 01-.328.77.579.579 0 01-.218.042.587.587 0 01-.544-.373zm12.324-.544a47.01 47.01 0 00-1.336-3.859.594.594 0 01.328-.77.585.585 0 01.762.33 48.52 48.52 0 011.37 3.957.594.594 0 01-.393.737.58.58 0 01-.169.025.589.589 0 01-.563-.417zM15.05 45.547a.592.592 0 01-.364-.752 47.62 47.62 0 011.523-3.9.585.585 0 01.775-.3.594.594 0 01.3.781 47.335 47.335 0 00-1.487 3.805.583.583 0 01-.745.368zm101.643-.905a59.075 59.075 0 00-1.219-3.91.593.593 0 01.358-.755.585.585 0 01.748.36 60.294 60.294 0 011.246 3.989.588.588 0 11-1.132.316zM3.267 42.559a.592.592 0 01-.377-.745c.425-1.318.9-2.642 1.418-3.935a.586.586 0 01.764-.328.594.594 0 01.325.769 59.579 59.579 0 00-1.391 3.857.589.589 0 01-.559.41.576.576 0 01-.18-.026zm26.39-.643a.6.6 0 01-.183-.816 36.7 36.7 0 012.43-3.422.585.585 0 01.826-.088.6.6 0 01.088.833 35.16 35.16 0 00-2.352 3.309.585.585 0 01-.81.185zm58.909-1.6a35.332 35.332 0 00-2.506-3.191.6.6 0 01.049-.835.584.584 0 01.829.049 36.536 36.536 0 012.588 3.3.6.6 0 01-.143.824.579.579 0 01-.337.107.586.586 0 01-.48-.249zm13.159-.985c-.6-1.21-1.27-2.409-1.98-3.567a.594.594 0 01.191-.815.585.585 0 01.808.192 48.704 48.704 0 012.029 3.657.594.594 0 01-.26.795.578.578 0 01-.264.064.588.588 0 01-.524-.321zm-83.431-1.385a.594.594 0 01-.229-.8 49.4 49.4 0 012.171-3.576.586.586 0 01.815-.16.594.594 0 01.158.822 48.014 48.014 0 00-2.117 3.487.588.588 0 01-.514.305.58.58 0 01-.284-.078zm95.7-1.021a60.647 60.647 0 00-1.743-3.7.594.594 0 01.251-.8.585.585 0 01.791.254 59.937 59.937 0 011.779 3.772.59.59 0 01-.538.827.588.588 0 01-.546-.354zM34.707 35.4a.6.6 0 01.006-.837 36.78 36.78 0 013.14-2.77.582.582 0 01.823.1.6.6 0 01-.1.831 35.292 35.292 0 00-3.037 2.681.583.583 0 01-.83-.007zm-28.436-.554A.594.594 0 016 34.055a60.37 60.37 0 011.945-3.7.586.586 0 01.8-.218.594.594 0 01.215.808 60.377 60.377 0 00-1.906 3.624.583.583 0 01-.785.273zm76.944-.6a35.263 35.263 0 00-3.164-2.532.594.594 0 01-.141-.824.584.584 0 01.818-.143 36.71 36.71 0 013.266 2.619.6.6 0 01.047.836.583.583 0 01-.828.047zm14.257-1.859a46.922 46.922 0 00-2.561-3.17.6.6 0 01.049-.836.584.584 0 01.829.049 49.338 49.338 0 012.624 3.249.6.6 0 01-.12.829.585.585 0 01-.821-.121zm-74.678-1.361a.594.594 0 01-.088-.833 49.387 49.387 0 012.748-3.145.585.585 0 01.83-.016.6.6 0 01.018.837 46.72 46.72 0 00-2.682 3.068.584.584 0 01-.825.088zm18.293-.809a.594.594 0 01.2-.812 36.291 36.291 0 013.685-1.973.588.588 0 01.779.292.594.594 0 01-.289.785 34.656 34.656 0 00-3.564 1.908.584.584 0 01-.806-.2zm69.165-.559a58.53 58.53 0 00-2.236-3.422.6.6 0 01.139-.825.584.584 0 01.818.14 59.663 59.663 0 012.28 3.49.6.6 0 01-.2.814.584.584 0 01-.806-.2zm-33.637-.088a34.643 34.643 0 00-3.655-1.732.594.594 0 01-.326-.769.584.584 0 01.763-.329 36.368 36.368 0 013.778 1.79.594.594 0 01.236.8.587.587 0 01-.517.31.574.574 0 01-.28-.07zm-66.321-1.942a.594.594 0 01-.16-.821 60.183 60.183 0 012.431-3.389.582.582 0 01.823-.1.6.6 0 01.1.831 58.204 58.204 0 00-2.383 3.323.585.585 0 01-.488.262.577.577 0 01-.323-.106zm38.184-.978a.592.592 0 01.377-.744 35.74 35.74 0 014.039-1.062.592.592 0 01.229 1.161 34.553 34.553 0 00-3.905 1.026.58.58 0 01-.181.03.587.587 0 01-.56-.411zm20.652-.105a34.8 34.8 0 00-3.951-.833.592.592 0 01.173-1.171 35.743 35.743 0 014.085.863.592.592 0 01-.153 1.162.57.57 0 01-.155-.021zm22.951-.261a46.68 46.68 0 00-3.064-2.679.6.6 0 01-.095-.833.586.586 0 01.825-.1 49.066 49.066 0 013.141 2.747.6.6 0 01.022.837.583.583 0 01-.83.023zM56.488 24.9a.592.592 0 01.538-.638 36.2 36.2 0 012.947-.121c.425-.009.818.006 1.225.021a.592.592 0 01-.039 1.183c-.394-.013-.77-.008-1.186-.02-.949 0-1.908.04-2.852.117h-.048a.59.59 0 01-.586-.543zm-28.083.092a.6.6 0 01.056-.835 48 48 0 013.244-2.622.584.584 0 01.82.128.594.594 0 01-.126.826 46.152 46.152 0 00-3.164 2.558.585.585 0 01-.829-.055zm77.148-2.015a59.816 59.816 0 00-2.681-3.082.6.6 0 01.026-.836.583.583 0 01.83.026 61.276 61.276 0 012.734 3.143.6.6 0 01-.083.833.584.584 0 01-.826-.083zm-19.818-1.775a46.394 46.394 0 00-3.477-2.108.594.594 0 01-.235-.8.584.584 0 01.8-.238 47.838 47.838 0 013.564 2.16.6.6 0 01.166.821.587.587 0 01-.491.265.579.579 0 01-.328-.101zm-70.468-.161a.594.594 0 01-.047-.835 60.506 60.506 0 012.867-3.02.583.583 0 01.83.011.594.594 0 01-.01.836 59.539 59.539 0 00-2.812 2.962.588.588 0 01-.438.2.577.577 0 01-.391-.155zm19.7-1.022a.594.594 0 01.2-.813 48.44 48.44 0 013.643-2.017.584.584 0 01.786.268.594.594 0 01-.266.793c-1.207.6-2.4 1.263-3.553 1.967a.585.585 0 01-.806-.2zm43.649-2.72a45.9 45.9 0 00-3.786-1.466.592.592 0 01.373-1.123c1.311.443 2.618.949 3.883 1.5a.6.6 0 01.3.779.587.587 0 01-.539.355.57.57 0 01-.235-.045zm21.375-.3a59.519 59.519 0 00-3.075-2.684.593.593 0 01-.088-.832.584.584 0 01.825-.09 61.058 61.058 0 013.136 2.738.6.6 0 01.032.836.585.585 0 01-.83.032zm-57.715-.739a.593.593 0 01.334-.766 47.312 47.312 0 013.936-1.349.584.584 0 01.728.4.593.593 0 01-.4.733 45.7 45.7 0 00-3.838 1.316.576.576 0 01-.214.041.587.587 0 01-.55-.37zM21.092 15.2a.6.6 0 01.067-.834c1.05-.9 2.144-1.772 3.251-2.595a.583.583 0 01.821.125.593.593 0 01-.124.826 59.287 59.287 0 00-3.187 2.545.582.582 0 01-.827-.068zm49.84-.5a46.289 46.289 0 00-3.979-.78.592.592 0 01.173-1.171c1.367.207 2.74.476 4.081.8a.592.592 0 01-.137 1.166.6.6 0 01-.142-.006zm-20.81-.857a.59.59 0 01.461-.7 47.466 47.466 0 014.109-.639.592.592 0 01.129 1.176 46.293 46.293 0 00-4.008.624.639.639 0 01-.115.011.588.588 0 01-.58-.467zm12.8-.352a47.716 47.716 0 00-4.055-.077.6.6 0 01-.6-.578.591.591 0 01.573-.606 48.81 48.81 0 014.154.08.592.592 0 01-.035 1.182zm30.743-1.642a57.814 57.814 0 00-3.412-2.233.594.594 0 01-.2-.812.583.583 0 01.805-.2 59.797 59.797 0 013.481 2.277.6.6 0 01.144.824.586.586 0 01-.482.252.576.576 0 01-.342-.102zm-66.016-1.625a.594.594 0 01.18-.817 60.86 60.86 0 013.572-2.119.585.585 0 01.8.238.6.6 0 01-.236.8 57.818 57.818 0 00-3.5 2.077.584.584 0 01-.811-.182zm59.045-2.6c-1.2-.618-2.442-1.2-3.687-1.737a.592.592 0 01-.31-.776.584.584 0 01.77-.313 59.14 59.14 0 013.761 1.772.6.6 0 01.256.8.586.586 0 01-.523.323.567.567 0 01-.273-.061zM34.812 6.209a.594.594 0 01.291-.784 58.932 58.932 0 013.826-1.6.585.585 0 01.755.347.593.593 0 01-.344.761c-1.262.476-2.524 1-3.75 1.569a.585.585 0 01-.778-.292zm44.39-1.793a56.446 56.446 0 00-3.886-1.2.591.591 0 01.3-1.143c1.331.361 2.665.774 3.965 1.227a.593.593 0 01.363.752.584.584 0 01-.746.366zM42.465 3.23a.592.592 0 01.4-.735c1.32-.4 2.671-.749 4.014-1.05a.592.592 0 01.256 1.155c-1.317.3-2.641.643-3.935 1.03a.573.573 0 01-.167.025.588.588 0 01-.568-.42zm28.89-.943a57.91 57.91 0 00-4.014-.648.592.592 0 01.146-1.174c1.365.172 2.743.394 4.1.661a.592.592 0 01-.113 1.173.621.621 0 01-.119-.008zm-20.9-.937a.591.591 0 01.492-.673 60.264 60.264 0 014.118-.481.592.592 0 01.1 1.179 59.109 59.109 0 00-4.038.472.726.726 0 01-.088.006.589.589 0 01-.581-.498zm12.834-.078a58.654 58.654 0 00-4.065-.087h-.007a.592.592 0 01-.008-1.184 60.874 60.874 0 014.145.089.592.592 0 01-.032 1.183z" fill="#ffb534"></path>
  </symbol>
  <symbol xmlns="http://www.w3.org/2000/svg" viewBox="0 0 249.102 666.094" id="info-left">
    <defs>
      <filter id="a" x="116.689" y="206.218" width="41.9" height="42.68" filterUnits="userSpaceOnUse">
        <feOffset dy="3"></feOffset>
        <feGaussianBlur stdDeviation="2.5" result="blur"></feGaussianBlur>
        <feFlood flood-color="#fe3e57" flood-opacity=".4"></feFlood>
        <feComposite operator="in" in2="blur"></feComposite>
        <feComposite in="SourceGraphic"></feComposite>
      </filter>
      <filter id="b" x="154.869" y="463.468" width="23.44" height="23.46" filterUnits="userSpaceOnUse">
        <feOffset dy="3"></feOffset>
        <feGaussianBlur stdDeviation="2.5" result="blur-2"></feGaussianBlur>
        <feFlood flood-color="#34c3ff" flood-opacity=".4"></feFlood>
        <feComposite operator="in" in2="blur-2"></feComposite>
        <feComposite in="SourceGraphic"></feComposite>
      </filter>
      <filter id="c" x="84.095" y="118.773" width="23.934" height="24.339" filterUnits="userSpaceOnUse">
        <feOffset dy="3"></feOffset>
        <feGaussianBlur stdDeviation="2.5" result="blur-3"></feGaussianBlur>
        <feFlood flood-color="#34c3ff" flood-opacity=".4"></feFlood>
        <feComposite operator="in" in2="blur-3"></feComposite>
        <feComposite in="SourceGraphic"></feComposite>
      </filter>
      <filter id="d" x="80.077" y="310.381" width="23.688" height="23.708" filterUnits="userSpaceOnUse">
        <feOffset dy="3"></feOffset>
        <feGaussianBlur stdDeviation="2.5" result="blur-4"></feGaussianBlur>
        <feFlood flood-color="#5800e4" flood-opacity=".4"></feFlood>
        <feComposite operator="in" in2="blur-4"></feComposite>
        <feComposite in="SourceGraphic"></feComposite>
      </filter>
      <filter id="e" x="208.528" y="357.812" width="23.934" height="24.338" filterUnits="userSpaceOnUse">
        <feOffset dy="3"></feOffset>
        <feGaussianBlur stdDeviation="2.5" result="blur-5"></feGaussianBlur>
        <feFlood flood-color="#ffb534" flood-opacity=".4"></feFlood>
        <feComposite operator="in" in2="blur-5"></feComposite>
        <feComposite in="SourceGraphic"></feComposite>
      </filter>
      <filter id="f" x="213.519" y="70.001" width="23.934" height="24.338" filterUnits="userSpaceOnUse">
        <feOffset dy="3"></feOffset>
        <feGaussianBlur stdDeviation="2.5" result="blur-6"></feGaussianBlur>
        <feFlood flood-color="#ffb534" flood-opacity=".4"></feFlood>
        <feComposite operator="in" in2="blur-6"></feComposite>
        <feComposite in="SourceGraphic"></feComposite>
      </filter>
      <filter id="g" x="102.797" y="595.203" width="23.935" height="24.339" filterUnits="userSpaceOnUse">
        <feOffset dy="3"></feOffset>
        <feGaussianBlur stdDeviation="2.5" result="blur-7"></feGaussianBlur>
        <feFlood flood-color="#fe3e57" flood-opacity=".4"></feFlood>
        <feComposite operator="in" in2="blur-7"></feComposite>
        <feComposite in="SourceGraphic"></feComposite>
      </filter>
    </defs>
    <path d="M35.109 566.578s31.285-102.8 48.7-141.042 41.262-67.356 82.644-99.012 60.9-103.626-8.117-190.551S38.33 24.118 26.256 15.478" fill="none" stroke="#ececec"></path>
    <path d="M32.897 665.593s21.1.79 47.225-97.144 38.712-125.108 58.294-160.661 40.534-57.764 68.624-77.528 74.285-77.493 5.9-178.408S21.014-25.499.43 8.939" fill="none" stroke="#ececec"></path>
    <g transform="translate(-.001 -.002)" filter="url(#a)">
      <g transform="translate(124.19 210.72)" fill="none" stroke="#fe3e57" stroke-width="2">
        <ellipse cx="13.45" cy="13.84" rx="13.45" ry="13.84" stroke="none"></ellipse>
        <ellipse cx="13.45" cy="13.84" rx="12.45" ry="12.84"></ellipse>
      </g>
    </g>
    <g transform="translate(-.001 -.002)" filter="url(#b)">
      <g transform="translate(162.37 467.97)" fill="none" stroke="#34c3ff" stroke-width="2">
        <ellipse cx="4.22" cy="4.23" rx="4.22" ry="4.23" stroke="none"></ellipse>
        <ellipse cx="4.22" cy="4.23" rx="3.22" ry="3.23"></ellipse>
      </g>
    </g>
    <g transform="translate(-.001 -.002)" filter="url(#c)">
      <path d="M97.351 127.944l2.914 3.046a.981.981 0 010 1.344.881.881 0 01-1.286 0l-2.914-3.046-2.914 3.046a.881.881 0 01-1.287 0 .981.981 0 010-1.344l2.914-3.046-2.914-3.046a.981.981 0 010-1.345.883.883 0 011.287 0l2.914 3.046 2.914-3.046a.883.883 0 011.286 0 .981.981 0 010 1.345z" fill="#34c3ff"></path>
    </g>
    <g transform="translate(-.001 -.002)" filter="url(#d)">
      <path d="M91.923 323.591l-4.344-4.354 4.344-4.354 4.344 4.354z" fill="#5800e4"></path>
    </g>
    <g transform="translate(-.001 -.002)" filter="url(#e)">
      <path d="M221.783 366.98l2.914 3.046a.981.981 0 010 1.345.882.882 0 01-1.286 0l-2.914-3.046-2.914 3.046a.882.882 0 01-1.286 0 .982.982 0 010-1.345l2.914-3.046-2.914-3.046a.982.982 0 010-1.345.882.882 0 011.286 0l2.914 3.046 2.914-3.046a.882.882 0 011.286 0 .981.981 0 010 1.345z" fill="#ffb534"></path>
    </g>
    <g transform="translate(-.001 -.002)" filter="url(#f)">
      <path d="M226.774 79.172l2.914 3.046a.982.982 0 010 1.345.883.883 0 01-1.287 0l-2.914-3.046-2.914 3.046a.883.883 0 01-1.286 0 .982.982 0 010-1.345l2.914-3.046-2.914-3.046a.982.982 0 010-1.345.881.881 0 011.286 0l2.914 3.046 2.914-3.046a.881.881 0 011.287 0 .982.982 0 010 1.345z" fill="#ffb534"></path>
    </g>
    <g transform="translate(-.001 -.002)" filter="url(#g)">
      <path d="M116.052 604.374l2.914 3.046a.982.982 0 010 1.345.882.882 0 01-1.287 0l-2.914-3.046-2.914 3.046a.881.881 0 01-1.286 0 .982.982 0 010-1.345l2.914-3.046-2.914-3.046a.982.982 0 010-1.345.882.882 0 011.286 0l2.914 3.046 2.914-3.046a.882.882 0 011.287 0 .982.982 0 010 1.345z" fill="#fe3e57"></path>
    </g>
  </symbol>
  <!-- popup -->

  <symbol xmlns="http://www.w3.org/2000/svg" viewBox="0 0 130 130" id="play_btn">
    <g transform="translate(-.021)">
      <circle cx="65" cy="65" r="65" transform="translate(.021)" fill="#fe3e57" opacity=".2"></circle>
      <circle cx="55" cy="55" r="55" transform="translate(10.021 10)" fill="#fe3e57" opacity=".6"></circle>
      <circle cx="45" cy="45" r="45" transform="translate(20.021 20)" fill="#fe3e57"></circle>
      <path d="M71.481 63.142l-11.824-7.6a3 3 0 00-1.553-.537c-.884 0-1.431.667-1.431 1.782v16.437c0 1.115.546 1.78 1.428 1.78a2.98 2.98 0 001.547-.538l11.829-7.605a2.051 2.051 0 000-3.714" fill="#fff"></path>
    </g>
  </symbol>








</svg>