<svg xmlns="http://www.w3.org/2000/svg" width="183" height="30" viewBox="0 0 183 30">
  <g id="Logo" transform="translate(-375 -40)">
    <g id="Vector_Smart_Object" data-name="Vector Smart Object" transform="translate(-56.229 -283.013)">
      <path id="Контур_71" data-name="Контур 71" d="M431.229,352.626V323.1h.48L445.9,339.432,459.968,323.1h.48v29.528h-4.41V337.454l.174-4.212a28.1,28.1,0,0,1-2.665,3.524l-7.468,8.854h-.525l-7.468-8.854-2.621-3.524q.173,2.579.175,4.212v15.172Z" fill="#1a1a1a"/>
      <path id="Контур_72" data-name="Контур 72" d="M510.675,343.6l6.289,9.027h-5.328l-5.329-7.694q-1.66.173-2.49.172h-2.795v7.522h-4.63V323.4h7.425q6.115,0,9.456,2.922a10.074,10.074,0,0,1,3.341,7.994Q516.615,341.021,510.675,343.6Zm-9.652-2.407h2.62q8.255,0,8.255-6.876,0-6.92-8.255-6.92h-2.62Z" fill="#1a1a1a"/>
      <path id="Контур_73" data-name="Контур 73" d="M536.706,353.013a15.006,15.006,0,0,1-10.831-4.255,15.24,15.24,0,0,1,0-21.447,15.006,15.006,0,0,1,10.831-4.254q7.949,0,11.88,5.8l-3.538,2.493q-2.752-4.212-8.342-4.212a10.022,10.022,0,0,0-7.556,3.094,11.7,11.7,0,0,0,0,15.581,10.7,10.7,0,0,0,16.335-1.483l3.537,2.45Q544.872,353.013,536.706,353.013Z" fill="#fe3e57"/>
      <path id="Контур_74" data-name="Контур 74" d="M554.262,352.626V323.4h4.63v13.148h14.282V323.4H577.8v29.226h-4.629V340.588H558.892v12.039Z" fill="#fe3e57"/>
      <path id="Контур_75" data-name="Контур 75" d="M598.942,353.013a15.135,15.135,0,0,1-10.9-4.255,15.235,15.235,0,0,1,0-21.489,16.023,16.023,0,0,1,21.751,0,15.237,15.237,0,0,1,0,21.489A15.084,15.084,0,0,1,598.942,353.013Zm-7.622-7.2a10.852,10.852,0,0,0,15.222,0,11.73,11.73,0,0,0,0-15.6,10.852,10.852,0,0,0-15.222,0,11.666,11.666,0,0,0,0,15.6Z" fill="#fe3e57"/>
      <path id="Контур_76" data-name="Контур 76" d="M478.53,323.1h-.524L465.3,352.626h4.455l8.43-21.4,8.56,21.4h4.8Z" fill="#1a1a1a"/>
    </g>
  </g>
</svg>
