<svg xmlns="http://www.w3.org/2000/svg" width="16" height="16" viewBox="0 0 16 16">
  <path id="Comment" d="M607.375,1097h-14.75a.625.625,0,0,0-.625.625V1110a.625.625,0,0,0,.625.625h5.53l1.316,2.084a.625.625,0,0,0,1.057,0l1.316-2.084h5.53A.625.625,0,0,0,608,1110v-12.375A.625.625,0,0,0,607.375,1097Zm-.625,12.375H601.5a.625.625,0,0,0-.529.291L600,1111.2l-.971-1.539a.625.625,0,0,0-.529-.291h-5.25V1098.25h13.5Zm-7.531-5.562a.781.781,0,1,1,.781.781A.781.781,0,0,1,599.219,1103.812Zm-3.125,0a.781.781,0,1,1,.781.781A.781.781,0,0,1,596.094,1103.812Zm6.25,0a.781.781,0,1,1,.781.781A.781.781,0,0,1,602.344,1103.812Z" transform="translate(-592 -1097)" fill="#fe3e57"/>
</svg>
